<?xml version="1.0" encoding="UTF-8" standalone="no"?>
<!-- Created with Inkscape (http://www.inkscape.org/) -->

<svg
   xmlns:dc="http://purl.org/dc/elements/1.1/"
   xmlns:cc="http://creativecommons.org/ns#"
   xmlns:rdf="http://www.w3.org/1999/02/22-rdf-syntax-ns#"
   xmlns:svg="http://www.w3.org/2000/svg"
   xmlns="http://www.w3.org/2000/svg"
   xmlns:sodipodi="http://sodipodi.sourceforge.net/DTD/sodipodi-0.dtd"
   xmlns:inkscape="http://www.inkscape.org/namespaces/inkscape"
   width="700"
   height="605"
   id="svg3912"
   version="1.1"
   inkscape:version="0.48.2 r9819"
   sodipodi:docname="SWIM.svg">
  <defs
     id="defs3914">
    <inkscape:path-effect
       effect="skeletal"
       id="path-effect3938"
       is_visible="true"
       pattern="M 0,0 1,0"
       copytype="single_stretched"
       prop_scale="1"
       scale_y_rel="false"
       spacing="0"
       normal_offset="0"
       tang_offset="0"
       prop_units="false"
       vertical_pattern="false"
       fuse_tolerance="0" />
    <clipPath
       id="clipPath5687"
       clipPathUnits="userSpaceOnUse">
      <path
         id="path5689"
         d="m 0,0 595.275,0 0,446.457 L 0,446.457 0,0 z"
         inkscape:connector-curvature="0" />
    </clipPath>
    <clipPath
       id="clipPath5667"
       clipPathUnits="userSpaceOnUse">
      <path
         id="path5669"
         d="m 0,0 595.276,0 0,595.276 L 0,595.276 0,0 z"
         inkscape:connector-curvature="0" />
    </clipPath>
    <clipPath
       id="clipPath5641"
       clipPathUnits="userSpaceOnUse">
      <path
         id="path5643"
         d="m 0,0 595.276,0 0,595.276 L 0,595.276 0,0 z"
         inkscape:connector-curvature="0" />
    </clipPath>
    <clipPath
       id="clipPath5619"
       clipPathUnits="userSpaceOnUse">
      <path
         id="path5621"
         d="m 0,0 595.276,0 0,595.276 L 0,595.276 0,0 z"
         inkscape:connector-curvature="0" />
    </clipPath>
    <clipPath
       id="clipPath5587"
       clipPathUnits="userSpaceOnUse">
      <path
         id="path5589"
         d="m 0,0 595.276,0 0,595.276 L 0,595.276 0,0 z"
         inkscape:connector-curvature="0" />
    </clipPath>
  </defs>
  <sodipodi:namedview
     id="base"
     pagecolor="#ffffff"
     bordercolor="#666666"
     borderopacity="1.0"
     inkscape:pageopacity="0.0"
     inkscape:pageshadow="2"
     inkscape:zoom="1.4142136"
     inkscape:cx="199.80874"
     inkscape:cy="474.31763"
     inkscape:document-units="px"
     inkscape:current-layer="layer1"
     showgrid="false"
     inkscape:window-width="1920"
     inkscape:window-height="1178"
     inkscape:window-x="0"
     inkscape:window-y="0"
     inkscape:window-maximized="0" />
  <metadata
     id="metadata3917">
    <rdf:RDF>
      <cc:Work
         rdf:about="">
        <dc:format>image/svg+xml</dc:format>
        <dc:type
           rdf:resource="http://purl.org/dc/dcmitype/StillImage" />
        <dc:title />
      </cc:Work>
    </rdf:RDF>
  </metadata>
  <g
     inkscape:label="Ebene 1"
     inkscape:groupmode="layer"
     id="layer1"
     transform="translate(0,-447.36218)">
    <g
       id="g5591"
       transform="matrix(9.7057763,0,0,-10.498806,615.93827,567.15854)">
      <path
         inkscape:connector-curvature="0"
         d="m 0,0 c -2.439,0.045 -4.798,-0.72 -7.024,-1.651 -6.983,-3.048 -13.164,-7.759 -19.09,-12.477 -0.857,-0.687 -1.708,-1.381 -2.554,-2.08 0.252,-0.287 0.506,-0.572 0.764,-0.853 1.683,1.418 3.381,2.816 5.101,4.188 5.525,4.375 11.274,8.845 17.812,11.605 C -3.394,-0.622 -1.73,-0.098 0,0 m -53.993,-46.019 -0.179,-0.024 0.12,-0.01 0.206,0.009 -0.147,0.025 z m 1.689,0.01 -0.204,-0.035 0.134,-0.004 0.236,0.02 -0.166,0.019 z m -0.879,0.135 c -0.138,-0.029 -0.275,-0.056 -0.413,-0.082 l 0.352,-0.039 c 0.147,0.016 0.292,0.034 0.438,0.056 l -0.377,0.065 z m -0.838,0.19 c -0.161,-0.043 -0.323,-0.082 -0.485,-0.117 0.145,-0.031 0.291,-0.059 0.438,-0.084 0.171,0.025 0.342,0.055 0.512,0.088 -0.156,0.034 -0.311,0.072 -0.465,0.113 m -0.799,0.238 c -0.158,-0.05 -0.316,-0.096 -0.476,-0.139 l -0.102,0.127 0.336,0.096 c -0.175,0.063 -0.349,0.13 -0.521,0.201 l -0.208,0.195 0.136,-0.058 c 0.196,0.078 0.39,0.16 0.583,0.247 -0.196,0.086 -0.389,0.176 -0.581,0.27 l -0.354,-0.182 -0.097,0.128 0.275,0.142 c -0.193,0.099 -0.383,0.202 -0.572,0.308 l -0.204,0.224 0.135,-0.078 c 0.199,0.126 0.396,0.257 0.591,0.391 -0.205,0.12 -0.407,0.244 -0.606,0.373 l -0.395,-0.301 -0.092,0.131 0.342,0.265 c -0.199,0.132 -0.395,0.267 -0.589,0.407 l -0.132,-0.118 -0.09,0.135 0.09,0.08 -0.289,0.222 -0.143,0.221 c 0.164,-0.13 0.33,-0.258 0.498,-0.384 0.201,0.182 0.4,0.366 0.599,0.551 -0.893,0.674 -1.722,1.413 -2.492,2.207 l -0.137,0.259 c 0.828,-0.869 1.726,-1.673 2.699,-2.4 l 0.687,0.652 c -1.901,1.444 -3.536,3.165 -4.93,5.074 l -0.118,0.295 c 1.438,-2.002 3.136,-3.801 5.125,-5.296 l 0.785,0.762 c -2.81,2.153 -5.077,4.878 -6.863,7.925 -0.134,0.239 -0.264,0.48 -0.39,0.721 l -0.085,0.33 c 0.165,-0.321 0.335,-0.639 0.512,-0.956 1.795,-3.059 4.077,-5.79 6.908,-7.94 l 0.894,0.878 c -2.653,2.061 -4.854,4.603 -6.637,7.444 -1.05,1.765 -1.901,3.596 -2.556,5.477 l -0.035,0.338 c 0.665,-1.965 1.543,-3.875 2.639,-5.714 1.792,-2.851 4.006,-5.398 6.678,-7.457 l 1.012,1.001 c -2.469,1.95 -4.568,4.295 -6.319,6.904 -2.063,3.258 -3.445,6.755 -4.152,10.377 l 0.015,0.328 c 0.692,-3.7 2.088,-7.273 4.196,-10.597 1.76,-2.618 3.871,-4.967 6.356,-6.917 l 1.138,1.129 c -2.255,1.819 -4.218,3.95 -5.903,6.305 -3.1,4.604 -4.834,9.709 -5.187,14.977 l 0.058,0.295 c 0.321,-5.333 2.06,-10.502 5.199,-15.157 1.694,-2.362 3.668,-4.498 5.937,-6.317 l 1.273,1.259 c -2.015,1.665 -3.809,3.566 -5.39,5.647 -4.081,5.692 -6.086,12.213 -5.852,18.922 l 0.089,0.261 c -0.273,-6.759 1.73,-13.331 5.846,-19.061 1.588,-2.087 3.391,-3.992 5.418,-5.658 0.47,0.465 0.941,0.929 1.413,1.391 -1.75,1.485 -3.34,3.139 -4.778,4.927 -4.978,6.547 -7.253,14.276 -6.343,22.214 l 0.11,0.227 c -0.949,-7.975 1.322,-15.74 6.327,-22.311 1.445,-1.795 3.044,-3.453 4.804,-4.939 0.517,0.508 1.037,1.015 1.557,1.52 -1.463,1.277 -2.82,2.667 -4.074,4.149 -5.766,7.186 -8.372,15.896 -6.81,24.864 l 0.122,0.195 c -1.593,-8.993 1.008,-17.725 6.794,-24.922 1.262,-1.489 2.63,-2.88 4.126,-4.132 0.555,0.54 1.112,1.078 1.672,1.614 -1.158,1.042 -2.252,2.15 -3.284,3.316 -6.436,7.636 -9.453,17.104 -7.353,26.928 l 0.129,0.167 c -2.12,-9.838 0.893,-19.315 7.342,-26.953 1.038,-1.17 2.139,-2.28 3.305,-3.323 0.611,0.586 1.225,1.171 1.839,1.754 -0.838,0.778 -1.643,1.589 -2.418,2.43 -6.89,7.828 -10.39,17.684 -8.118,28.056 l 0.111,0.45 0.136,0.146 -0.13,-0.528 c -2.247,-10.351 1.251,-20.173 8.129,-27.977 0.781,-0.844 1.593,-1.658 2.437,-2.438 0.657,0.621 1.316,1.24 1.976,1.857 -0.509,0.488 -1.006,0.987 -1.493,1.497 -7.13,7.804 -11.131,17.702 -9.103,28.316 0.096,0.456 0.203,0.907 0.321,1.354 l 0.139,0.125 c -0.123,-0.467 -0.233,-0.938 -0.332,-1.413 -1.999,-10.589 1.997,-20.45 9.113,-28.23 0.491,-0.514 0.994,-1.016 1.507,-1.507 0.7,0.649 1.401,1.296 2.103,1.942 l -0.524,0.525 c -7.325,7.775 -11.806,17.671 -10.111,28.489 0.117,0.665 0.257,1.324 0.418,1.976 l 0.141,0.107 c -0.163,-0.667 -0.305,-1.341 -0.422,-2.02 -1.661,-10.79 2.81,-20.647 10.12,-28.395 l 0.536,-0.538 c 0.736,0.671 1.475,1.339 2.214,2.005 -7.221,7.68 -11.894,17.366 -10.652,28.097 0.106,0.8 0.246,1.593 0.413,2.38 l 0.144,0.091 c -0.168,-0.797 -0.306,-1.601 -0.412,-2.411 -1.206,-10.707 3.461,-20.356 10.671,-28.01 0.766,0.686 1.536,1.368 2.31,2.046 -6.809,7.496 -11.351,16.748 -10.652,27.068 0.073,0.878 0.187,1.749 0.327,2.616 l 0.147,0.077 c -0.139,-0.874 -0.251,-1.752 -0.322,-2.638 -0.661,-10.291 3.871,-19.505 10.667,-26.977 0.791,0.692 1.586,1.38 2.386,2.062 -6.39,7.294 -10.754,16.081 -10.633,25.943 0.023,0.91 0.096,1.814 0.18,2.718 l 0.147,0.065 c -0.079,-0.909 -0.149,-1.818 -0.169,-2.733 -0.083,-9.83 4.269,-18.579 10.644,-25.848 0.809,0.689 1.622,1.372 2.44,2.05 -5.974,7.073 -10.124,15.377 -10.598,24.735 -0.035,0.903 -0.013,1.809 -0.01,2.714 l 0.15,0.054 c 0.002,-0.909 -0.017,-1.819 0.023,-2.723 0.511,-9.324 4.646,-17.591 10.606,-24.639 0.847,0.701 1.7,1.395 2.558,2.082 5.934,4.719 12.128,9.426 19.126,12.457 2.421,1 5.06,1.848 7.7,1.577 l 0.156,-0.194 c -1.939,0.036 -3.833,-0.565 -5.616,-1.29 -6.521,-2.78 -12.256,-7.253 -17.773,-11.629 -1.716,-1.371 -3.412,-2.768 -5.092,-4.185 0.266,-0.288 0.535,-0.574 0.807,-0.858 2.469,2.117 4.966,4.202 7.507,6.233 5.069,4.021 10.333,8.24 16.364,10.727 1.23,0.483 2.513,0.878 3.835,0.962 l 0.099,-0.125 c -1.319,-0.08 -2.61,-0.491 -3.836,-0.977 -6.013,-2.507 -11.262,-6.73 -16.323,-10.753 -2.535,-2.029 -5.026,-4.113 -7.491,-6.227 0.279,-0.289 0.561,-0.575 0.845,-0.858 3.203,2.785 6.436,5.535 9.741,8.198 4.581,3.663 9.334,7.626 14.826,9.841 0.755,0.289 1.536,0.534 2.334,0.654 L 1.05,-0.531 c -0.799,-0.122 -1.582,-0.374 -2.336,-0.666 -5.474,-2.237 -10.211,-6.203 -14.783,-9.87 -3.296,-2.662 -6.522,-5.41 -9.718,-8.192 l 0.312,-0.307 0.567,-0.544 c 3.877,3.412 7.775,6.8 11.773,10.07 4.074,3.308 8.304,7.014 13.24,8.965 0.359,0.134 0.725,0.255 1.098,0.347 L 1.296,-0.851 C 0.922,-0.946 0.554,-1.069 0.195,-1.205 c -4.919,-1.976 -9.132,-5.685 -13.197,-8.997 -3.986,-3.269 -7.874,-6.655 -11.743,-10.062 0.3,-0.283 0.603,-0.562 0.908,-0.839 4.489,3.988 8.974,7.983 13.58,11.836 3.564,2.959 7.271,6.415 11.646,8.114 l 0.106,0.038 0.091,-0.123 -0.111,-0.041 c -4.358,-1.726 -8.049,-5.183 -11.603,-8.147 -4.591,-3.853 -9.063,-7.845 -13.542,-11.827 0.309,-0.277 0.62,-0.551 0.934,-0.82 5.035,4.508 10.024,9.072 15.143,13.485 2.881,2.468 5.885,5.462 9.415,7.026 l 0.089,-0.124 c -3.517,-1.588 -6.506,-4.583 -9.38,-7.058 -5.099,-4.416 -10.073,-8.975 -15.097,-13.476 0.316,-0.268 0.634,-0.533 0.955,-0.795 5.518,4.968 10.928,10.054 16.455,15.012 2.239,1.999 4.582,4.521 7.316,5.965 l 0.087,-0.125 c -2.722,-1.465 -5.051,-3.986 -7.286,-5.992 -5.501,-4.962 -10.894,-10.042 -16.397,-15.001 0.323,-0.261 0.651,-0.517 1.005,-0.735 5.924,5.355 11.667,10.901 17.474,16.381 1.736,1.633 3.48,3.55 5.499,4.911 l 0.085,-0.127 c -2.009,-1.376 -3.742,-3.294 -5.473,-4.932 -5.787,-5.496 -11.522,-11.044 -17.441,-16.399 0.325,-0.247 0.649,-0.495 0.98,-0.734 0.759,0.686 1.515,1.375 2.268,2.066 5.485,5.067 10.778,10.327 16.043,15.619 1.287,1.291 2.544,2.69 3.949,3.88 l 0.082,-0.129 c -1.394,-1.2 -2.645,-2.6 -3.926,-3.896 -5.244,-5.308 -10.53,-10.571 -16.008,-15.638 -0.739,-0.68 -1.482,-1.357 -2.226,-2.032 0.329,-0.233 0.661,-0.463 0.996,-0.687 1.467,1.322 2.916,2.663 4.351,4.02 5.01,4.763 9.83,9.713 14.509,14.801 0.88,0.958 1.738,1.947 2.643,2.885 l 0.08,-0.131 c -0.898,-0.944 -1.75,-1.935 -2.625,-2.895 -4.656,-5.104 -9.468,-10.058 -14.472,-14.823 -1.418,-1.343 -2.852,-2.671 -4.301,-3.98 0.331,-0.219 0.665,-0.433 1.003,-0.642 2.127,1.916 4.211,3.877 6.256,5.879 4.516,4.45 8.856,9.078 12.918,13.948 0.529,0.637 1.047,1.282 1.569,1.924 L 3.879,-4.756 C 3.363,-5.4 2.849,-6.045 2.325,-6.682 c -4.04,-4.887 -8.372,-9.52 -12.881,-13.973 -2.025,-1.987 -4.09,-3.933 -6.196,-5.833 0.332,-0.202 0.668,-0.4 1.006,-0.591 2.734,2.456 5.386,4.998 7.958,7.624 4.016,4.135 7.883,8.437 11.309,13.079 0.24,0.328 0.476,0.658 0.71,0.99 l 0.074,-0.136 c -0.23,-0.331 -0.463,-0.66 -0.699,-0.986 -3.403,-4.658 -7.263,-8.966 -11.273,-13.106 -2.547,-2.608 -5.176,-5.134 -7.886,-7.573 0.333,-0.185 0.668,-0.364 1.007,-0.537 3.282,2.938 6.431,6.02 9.433,9.244 3.522,3.823 6.94,7.807 9.722,12.21 L 4.658,-6.191 4.729,-6.33 4.687,-6.397 c -2.758,-4.419 -6.17,-8.41 -9.686,-12.238 -2.974,-3.205 -6.096,-6.268 -9.35,-9.189 0.331,-0.166 0.665,-0.326 1.002,-0.48 3.771,3.36 7.345,6.931 10.674,10.729 2.842,3.285 5.648,6.717 7.752,10.538 l 0.067,-0.142 c -2.083,-3.826 -4.88,-7.262 -7.712,-10.548 -3.298,-3.776 -6.841,-7.327 -10.578,-10.668 0.329,-0.146 0.661,-0.287 0.996,-0.42 4.194,3.718 8.125,7.727 11.671,12.069 2.2,2.739 4.424,5.621 5.975,8.807 l 0.065,-0.146 c -1.536,-3.186 -3.751,-6.071 -5.941,-8.809 -3.512,-4.319 -7.407,-8.304 -11.563,-12.003 0.326,-0.126 0.655,-0.246 0.986,-0.36 4.554,4.015 8.778,8.406 12.428,13.264 1.643,2.23 3.279,4.577 4.425,7.125 L 5.96,-9.016 c -1.136,-2.547 -2.761,-4.893 -4.396,-7.122 -3.611,-4.83 -7.795,-9.196 -12.306,-13.19 0.322,-0.106 0.646,-0.205 0.973,-0.297 4.85,4.247 9.313,8.968 12.95,14.306 1.158,1.74 2.277,3.558 3.099,5.493 l 0.058,-0.152 c -0.815,-1.93 -1.925,-3.744 -3.074,-5.482 -3.595,-5.305 -8.012,-9.999 -12.815,-14.226 0.318,-0.086 0.636,-0.164 0.956,-0.235 5.084,4.421 9.745,9.421 13.249,15.2 0.74,1.254 1.438,2.551 1.988,3.904 l 0.054,-0.156 C 6.152,-12.318 5.463,-13.609 4.73,-14.858 1.269,-20.599 -3.339,-25.57 -8.368,-29.97 c 0.311,-0.064 0.623,-0.122 0.936,-0.172 5.254,4.535 10.081,9.771 13.339,15.946 0.393,0.768 0.759,1.553 1.075,2.356 L 7.032,-12 c -0.311,-0.793 -0.671,-1.569 -1.056,-2.329 -3.214,-6.13 -7.979,-11.334 -13.172,-15.849 0.303,-0.044 0.607,-0.081 0.911,-0.111 5.367,4.595 10.336,10.033 13.239,16.548 0.119,0.28 0.235,0.562 0.344,0.847 l 0.046,-0.163 C 7.24,-13.33 7.13,-13.601 7.016,-13.869 4.158,-20.332 -0.74,-25.736 -6.038,-30.311 c 0.294,-0.024 0.588,-0.041 0.883,-0.05 5.26,4.464 10.208,9.881 12.737,16.398 l 0.042,-0.166 c -2.491,-6.439 -7.346,-11.803 -12.518,-16.238 0.283,-0.005 0.566,-0.002 0.849,0.007 4.898,4.115 9.599,9.216 11.883,15.304 l 0.037,-0.171 c -2.248,-5.997 -6.843,-11.036 -11.642,-15.121 0.27,0.014 0.54,0.035 0.809,0.062 4.545,3.773 8.888,8.508 11.019,14.124 l 0.032,-0.174 C 5.997,-21.847 1.78,-26.51 -2.657,-30.252 c 0.255,0.031 0.509,0.068 0.763,0.112 4.217,3.447 8.114,7.773 10.138,12.896 L 8.27,-17.42 c -1.981,-5.004 -5.743,-9.247 -9.834,-12.659 0.236,0.045 0.471,0.097 0.705,0.154 3.872,3.106 7.337,7.007 9.25,11.617 l 0.022,-0.179 c -1.862,-4.471 -5.177,-8.276 -8.898,-11.342 0.212,0.057 0.423,0.12 0.633,0.186 3.508,2.755 6.561,6.219 8.355,10.301 l 0.017,-0.181 c -1.728,-3.917 -4.609,-7.265 -7.933,-9.973 0.179,0.064 0.358,0.13 0.535,0.201 3.135,2.396 5.796,5.417 7.461,8.966 l 0.012,-0.182 c -1.574,-3.343 -4.027,-6.218 -6.924,-8.555 l 0.392,0.18 c 2.753,2.037 5.045,4.615 6.569,7.636 l 0.007,-0.184 c -1.383,-2.733 -3.392,-5.107 -5.806,-7.058 l 0.133,0.074 c 2.372,1.685 4.32,3.828 5.69,6.333 l 0.003,-0.186 c -1.081,-1.975 -2.521,-3.731 -4.257,-5.231 1.742,1.289 3.173,2.873 4.259,4.689 L 8.66,-22.987 c -1.381,-2.294 -3.306,-4.205 -5.674,-5.597 -0.615,-0.424 -1.254,-0.81 -1.915,-1.158 -0.694,-0.441 -1.41,-0.844 -2.148,-1.206 -0.771,-0.454 -1.564,-0.87 -2.377,-1.243 -0.844,-0.464 -1.71,-0.887 -2.595,-1.267 -0.913,-0.469 -1.846,-0.897 -2.798,-1.279 -0.973,-0.469 -1.965,-0.895 -2.977,-1.275 -1.023,-0.463 -2.064,-0.882 -3.124,-1.254 -1.062,-0.451 -2.142,-0.859 -3.24,-1.217 -1.089,-0.435 -2.194,-0.825 -3.317,-1.165 -1.1,-0.412 -2.216,-0.779 -3.347,-1.095 -1.099,-0.385 -2.213,-0.726 -3.342,-1.014 -1.084,-0.354 -2.18,-0.663 -3.291,-0.92 -1.054,-0.319 -2.12,-0.594 -3.199,-0.817 -1.015,-0.283 -2.04,-0.522 -3.077,-0.709 -0.964,-0.245 -1.938,-0.447 -2.921,-0.598 -0.904,-0.206 -1.817,-0.371 -2.738,-0.485 -0.84,-0.169 -1.688,-0.297 -2.542,-0.376 -0.771,-0.132 -1.548,-0.226 -2.329,-0.27 -0.7,-0.099 -1.404,-0.159 -2.111,-0.172 -0.629,-0.068 -1.262,-0.097 -1.896,-0.082 -0.56,-0.038 -1.121,-0.04 -1.681,10e-4 -0.275,-0.007 -0.55,-0.003 -0.825,0.013 l -0.201,0.237 0.183,-0.031 c 0.127,0.008 0.255,0.02 0.381,0.034 l -0.335,0.077 -0.259,-0.044 -0.106,0.127 -0.137,0.166 c 0.142,-0.041 0.284,-0.08 0.428,-0.116 0.179,0.035 0.357,0.075 0.534,0.118 -0.169,0.05 -0.337,0.102 -0.504,0.158 m 4.421,-0.471 -0.231,-0.046 0.15,10e-4 0.265,0.033 -0.184,0.012 z m -0.979,0.103 c -0.157,-0.038 -0.314,-0.074 -0.472,-0.108 l 0.395,-0.025 c 0.167,0.024 0.332,0.051 0.497,0.081 l -0.42,0.052 z m -0.935,0.161 c -0.185,-0.054 -0.371,-0.103 -0.559,-0.149 0.164,-0.026 0.328,-0.048 0.493,-0.068 0.195,0.036 0.391,0.076 0.585,0.119 -0.173,0.03 -0.346,0.062 -0.519,0.098 m -0.892,0.214 c -0.194,-0.065 -0.39,-0.126 -0.588,-0.183 0.178,-0.041 0.355,-0.079 0.534,-0.113 0.207,0.046 0.413,0.098 0.618,0.153 -0.189,0.044 -0.377,0.092 -0.564,0.143 m -0.852,0.265 c -0.194,-0.076 -0.391,-0.148 -0.589,-0.215 0.183,-0.056 0.366,-0.109 0.55,-0.158 0.209,0.057 0.415,0.119 0.621,0.186 -0.196,0.058 -0.39,0.12 -0.582,0.187 m -0.816,0.312 c -0.188,-0.086 -0.379,-0.169 -0.572,-0.246 0.182,-0.071 0.366,-0.137 0.551,-0.2 0.205,0.067 0.407,0.139 0.607,0.216 -0.197,0.073 -0.392,0.149 -0.586,0.23 m 6.598,-0.872 -0.259,-0.059 0.165,0.009 0.295,0.045 -0.201,0.005 z m -1.08,0.066 c -0.177,-0.047 -0.353,-0.093 -0.531,-0.135 l 0.438,-0.009 c 0.186,0.033 0.371,0.069 0.556,0.108 l -0.463,0.036 z m -1.032,0.129 c -0.212,-0.065 -0.423,-0.127 -0.637,-0.184 0.183,-0.02 0.365,-0.036 0.549,-0.049 0.221,0.047 0.442,0.098 0.661,0.153 -0.191,0.024 -0.383,0.05 -0.573,0.08 m -0.988,0.187 c -0.223,-0.079 -0.448,-0.154 -0.675,-0.223 0.198,-0.036 0.397,-0.068 0.595,-0.095 0.237,0.059 0.471,0.123 0.704,0.192 -0.209,0.038 -0.416,0.08 -0.624,0.126 m -0.944,0.241 c -0.226,-0.09 -0.453,-0.177 -0.683,-0.258 0.204,-0.051 0.409,-0.098 0.614,-0.141 0.24,0.071 0.477,0.147 0.713,0.228 -0.216,0.053 -0.431,0.11 -0.644,0.171 m -0.905,0.293 c -0.222,-0.102 -0.446,-0.199 -0.672,-0.291 0.204,-0.067 0.41,-0.129 0.617,-0.187 0.237,0.082 0.472,0.169 0.704,0.261 -0.218,0.068 -0.435,0.14 -0.649,0.217 m -0.868,0.34 c -0.214,-0.112 -0.431,-0.22 -0.65,-0.324 0.202,-0.081 0.406,-0.157 0.612,-0.229 0.23,0.093 0.458,0.191 0.684,0.294 -0.217,0.082 -0.433,0.168 -0.646,0.259 m -0.831,0.385 c -0.206,-0.123 -0.413,-0.242 -0.622,-0.356 0.198,-0.094 0.398,-0.184 0.6,-0.269 0.222,0.103 0.441,0.212 0.657,0.325 -0.214,0.096 -0.426,0.195 -0.635,0.3 m -0.798,0.427 c -0.194,-0.133 -0.391,-0.263 -0.59,-0.389 0.193,-0.106 0.389,-0.209 0.587,-0.307 0.211,0.115 0.419,0.234 0.625,0.358 -0.209,0.108 -0.416,0.221 -0.622,0.338 m 9.786,-1.786 -0.285,-0.072 0.184,0.016 0.322,0.059 -0.221,-0.003 z m -1.177,0.026 c -0.197,-0.057 -0.394,-0.112 -0.592,-0.165 l 0.482,0.009 c 0.206,0.043 0.411,0.088 0.616,0.137 l -0.506,0.019 z m -1.13,0.093 c -0.236,-0.078 -0.474,-0.152 -0.714,-0.222 0.201,-0.013 0.403,-0.022 0.604,-0.028 0.247,0.059 0.493,0.122 0.738,0.19 -0.209,0.017 -0.419,0.036 -0.628,0.06 m -1.082,0.156 c -0.253,-0.094 -0.509,-0.183 -0.765,-0.267 0.219,-0.029 0.438,-0.054 0.658,-0.074 0.265,0.073 0.529,0.151 0.791,0.235 -0.228,0.031 -0.457,0.066 -0.684,0.106 m -1.039,0.214 c -0.258,-0.107 -0.517,-0.209 -0.779,-0.305 0.226,-0.046 0.452,-0.086 0.679,-0.122 0.271,0.085 0.541,0.177 0.809,0.273 -0.237,0.047 -0.474,0.098 -0.709,0.154 m -0.996,0.27 c -0.256,-0.119 -0.514,-0.233 -0.774,-0.342 0.227,-0.061 0.454,-0.117 0.683,-0.168 0.272,0.097 0.54,0.201 0.806,0.309 -0.239,0.062 -0.478,0.129 -0.715,0.201 m -0.956,0.322 c -0.25,-0.13 -0.502,-0.256 -0.757,-0.376 0.225,-0.077 0.451,-0.148 0.679,-0.215 0.266,0.11 0.529,0.225 0.79,0.345 -0.239,0.077 -0.476,0.159 -0.712,0.246 m -0.918,0.37 c -0.241,-0.141 -0.485,-0.278 -0.732,-0.41 0.221,-0.091 0.443,-0.177 0.667,-0.257 0.259,0.12 0.514,0.247 0.767,0.378 -0.237,0.092 -0.47,0.188 -0.702,0.289 m -0.881,0.416 c -0.232,-0.151 -0.466,-0.3 -0.702,-0.444 0.215,-0.104 0.433,-0.204 0.652,-0.298 0.249,0.133 0.494,0.271 0.738,0.412 -0.232,0.105 -0.461,0.216 -0.688,0.33 m -0.847,0.459 c -0.221,-0.162 -0.443,-0.322 -0.669,-0.478 0.21,-0.117 0.421,-0.229 0.636,-0.337 0.238,0.145 0.472,0.294 0.705,0.446 -0.227,0.118 -0.45,0.241 -0.672,0.369 m -0.811,0.499 c -0.21,-0.173 -0.422,-0.345 -0.635,-0.513 0.203,-0.128 0.409,-0.253 0.617,-0.373 0.226,0.157 0.449,0.317 0.67,0.481 -0.22,0.13 -0.438,0.265 -0.652,0.405 m -0.779,0.535 c -0.199,-0.183 -0.399,-0.366 -0.6,-0.547 0.196,-0.14 0.396,-0.275 0.598,-0.407 0.213,0.169 0.425,0.341 0.634,0.515 -0.214,0.143 -0.425,0.289 -0.632,0.439 m 13.169,-2.972 -0.311,-0.087 0.197,0.023 0.351,0.075 -0.237,-0.011 z m -1.272,-0.017 c -0.217,-0.068 -0.433,-0.134 -0.651,-0.197 l 0.525,0.028 c 0.225,0.053 0.45,0.109 0.673,0.167 l -0.547,0.002 z m -1.223,0.054 c -0.263,-0.092 -0.526,-0.18 -0.792,-0.263 0.22,-0.006 0.439,-0.007 0.658,-0.006 0.273,0.072 0.544,0.149 0.814,0.23 -0.227,0.009 -0.454,0.022 -0.68,0.039 m -1.176,0.12 c -0.284,-0.109 -0.568,-0.213 -0.854,-0.313 0.239,-0.021 0.479,-0.038 0.719,-0.051 0.294,0.088 0.588,0.182 0.878,0.28 -0.248,0.024 -0.496,0.052 -0.743,0.084 m -1.131,0.185 c -0.29,-0.124 -0.583,-0.243 -0.878,-0.357 0.247,-0.038 0.496,-0.071 0.745,-0.099 0.304,0.102 0.606,0.209 0.905,0.322 -0.258,0.04 -0.516,0.084 -0.772,0.134 m -1.087,0.243 c -0.291,-0.136 -0.584,-0.268 -0.879,-0.395 0.249,-0.055 0.499,-0.104 0.751,-0.148 0.305,0.114 0.608,0.235 0.909,0.362 -0.261,0.055 -0.522,0.115 -0.781,0.181 m -1.045,0.3 c -0.287,-0.148 -0.576,-0.293 -0.867,-0.432 0.247,-0.071 0.496,-0.136 0.747,-0.197 0.302,0.127 0.601,0.261 0.898,0.4 -0.261,0.071 -0.52,0.148 -0.778,0.229 m -1.005,0.353 c -0.28,-0.16 -0.562,-0.317 -0.847,-0.468 0.244,-0.086 0.489,-0.167 0.736,-0.243 0.296,0.139 0.589,0.285 0.879,0.436 -0.258,0.086 -0.514,0.178 -0.768,0.275 m -0.967,0.403 c -0.271,-0.172 -0.544,-0.341 -0.82,-0.504 0.239,-0.101 0.479,-0.197 0.721,-0.287 0.288,0.152 0.572,0.309 0.854,0.471 -0.254,0.102 -0.506,0.208 -0.755,0.32 m -0.929,0.449 c -0.261,-0.183 -0.524,-0.364 -0.789,-0.54 0.232,-0.115 0.466,-0.224 0.703,-0.328 0.277,0.164 0.551,0.334 0.823,0.506 -0.248,0.116 -0.494,0.236 -0.737,0.362 m -0.893,0.493 c -0.25,-0.195 -0.502,-0.387 -0.757,-0.576 0.226,-0.127 0.453,-0.25 0.684,-0.368 0.266,0.177 0.529,0.359 0.791,0.543 -0.243,0.129 -0.481,0.262 -0.718,0.401 m -0.857,0.533 c -0.24,-0.206 -0.481,-0.41 -0.723,-0.612 0.217,-0.139 0.438,-0.274 0.662,-0.404 0.255,0.19 0.506,0.383 0.757,0.579 -0.235,0.141 -0.467,0.287 -0.696,0.437 m -0.823,0.572 -0.689,-0.649 c 0.21,-0.15 0.424,-0.297 0.64,-0.439 0.243,0.203 0.483,0.409 0.722,0.616 -0.227,0.153 -0.452,0.31 -0.673,0.472 m 15.16,-3.191 -0.336,-0.102 0.211,0.031 0.376,0.09 -0.251,-0.019 z m -1.36,-0.062 c -0.235,-0.08 -0.47,-0.156 -0.707,-0.23 l 0.564,0.048 c 0.244,0.064 0.486,0.13 0.728,0.199 -0.195,-0.008 -0.39,-0.014 -0.585,-0.017 m -1.312,0.012 c -0.287,-0.106 -0.576,-0.208 -0.866,-0.306 0.237,0.003 0.475,0.009 0.712,0.019 0.296,0.086 0.591,0.176 0.885,0.271 -0.244,0.002 -0.487,0.007 -0.731,0.016 m -1.264,0.084 c -0.312,-0.126 -0.626,-0.247 -0.942,-0.362 0.26,-0.014 0.519,-0.022 0.779,-0.026 0.323,0.103 0.643,0.213 0.963,0.326 -0.267,0.017 -0.534,0.037 -0.8,0.062 m -1.219,0.151 c -0.323,-0.142 -0.648,-0.279 -0.976,-0.409 0.269,-0.031 0.538,-0.056 0.809,-0.076 0.335,0.118 0.668,0.244 0.999,0.374 -0.278,0.032 -0.555,0.069 -0.832,0.111 m -1.176,0.215 c -0.325,-0.156 -0.654,-0.307 -0.984,-0.452 0.271,-0.048 0.544,-0.09 0.818,-0.127 0.339,0.133 0.676,0.272 1.011,0.418 -0.282,0.047 -0.564,0.101 -0.845,0.161 m -1.132,0.275 c -0.324,-0.169 -0.65,-0.333 -0.979,-0.492 0.27,-0.065 0.542,-0.124 0.815,-0.177 0.339,0.146 0.675,0.299 1.008,0.458 -0.283,0.064 -0.564,0.135 -0.844,0.211 m -1.091,0.332 c -0.319,-0.181 -0.64,-0.359 -0.964,-0.53 0.267,-0.082 0.535,-0.157 0.804,-0.226 0.335,0.159 0.666,0.325 0.994,0.496 -0.28,0.081 -0.558,0.168 -0.834,0.26 m -1.052,0.386 c -0.311,-0.193 -0.624,-0.383 -0.941,-0.568 0.261,-0.097 0.524,-0.188 0.789,-0.273 0.327,0.173 0.651,0.351 0.973,0.534 -0.276,0.097 -0.549,0.199 -0.821,0.307 m -1.013,0.437 c -0.302,-0.206 -0.606,-0.408 -0.914,-0.606 0.255,-0.111 0.512,-0.217 0.771,-0.318 0.319,0.186 0.634,0.377 0.947,0.572 -0.27,0.112 -0.538,0.229 -0.804,0.352 m -0.974,0.484 c -0.292,-0.217 -0.587,-0.432 -0.884,-0.644 0.247,-0.125 0.498,-0.245 0.75,-0.359 0.309,0.199 0.613,0.402 0.917,0.609 -0.264,0.126 -0.525,0.258 -0.783,0.394 m -0.938,0.529 c -0.282,-0.229 -0.566,-0.457 -0.852,-0.681 0.24,-0.139 0.483,-0.272 0.728,-0.4 0.298,0.212 0.592,0.428 0.885,0.647 -0.256,0.14 -0.509,0.285 -0.761,0.434 m -0.9,0.57 c -0.272,-0.241 -0.545,-0.481 -0.82,-0.719 0.232,-0.151 0.467,-0.296 0.705,-0.437 0.286,0.225 0.57,0.454 0.853,0.685 -0.25,0.152 -0.495,0.309 -0.738,0.471 m -0.864,0.609 -0.788,-0.758 c 0.224,-0.161 0.451,-0.318 0.681,-0.471 0.275,0.239 0.548,0.48 0.819,0.723 -0.241,0.164 -0.478,0.333 -0.712,0.506 m 17.226,-3.414 -0.357,-0.116 0.223,0.039 0.401,0.105 -0.267,-0.028 z m -1.437,-0.108 c -0.251,-0.09 -0.504,-0.178 -0.758,-0.263 l 0.6,0.07 c 0.26,0.073 0.519,0.15 0.777,0.23 -0.207,-0.015 -0.413,-0.027 -0.619,-0.037 m -1.391,-0.03 c -0.31,-0.12 -0.623,-0.237 -0.936,-0.349 0.253,0.011 0.506,0.026 0.759,0.044 0.32,0.1 0.637,0.204 0.953,0.312 -0.259,-0.006 -0.518,-0.008 -0.776,-0.007 m -1.346,0.045 c -0.34,-0.142 -0.681,-0.28 -1.025,-0.413 0.278,-0.004 0.556,-0.004 0.835,0.001 0.349,0.119 0.697,0.244 1.042,0.375 -0.283,0.007 -0.568,0.02 -0.852,0.037 m -1.301,0.116 c -0.354,-0.161 -0.711,-0.316 -1.07,-0.465 0.289,-0.022 0.579,-0.039 0.869,-0.05 0.366,0.136 0.729,0.279 1.09,0.428 -0.297,0.023 -0.593,0.052 -0.889,0.087 m -1.258,0.183 c -0.36,-0.176 -0.723,-0.347 -1.088,-0.511 0.292,-0.04 0.587,-0.075 0.881,-0.103 0.373,0.152 0.744,0.311 1.111,0.475 -0.302,0.04 -0.603,0.087 -0.904,0.139 m -1.216,0.248 c -0.361,-0.19 -0.724,-0.375 -1.09,-0.555 0.292,-0.058 0.586,-0.109 0.881,-0.155 0.374,0.167 0.746,0.34 1.115,0.519 -0.303,0.057 -0.606,0.121 -0.906,0.191 m -1.175,0.309 c -0.357,-0.204 -0.717,-0.403 -1.08,-0.596 0.289,-0.075 0.579,-0.144 0.871,-0.207 0.372,0.181 0.742,0.368 1.108,0.56 -0.301,0.075 -0.6,0.156 -0.899,0.243 m -1.134,0.367 c -0.352,-0.217 -0.705,-0.429 -1.063,-0.636 0.283,-0.092 0.569,-0.178 0.857,-0.257 0.366,0.195 0.73,0.395 1.092,0.601 -0.297,0.091 -0.592,0.189 -0.886,0.292 m -1.094,0.422 c -0.344,-0.23 -0.692,-0.456 -1.041,-0.676 0.277,-0.108 0.557,-0.21 0.838,-0.305 0.36,0.208 0.717,0.422 1.071,0.64 -0.292,0.108 -0.581,0.221 -0.868,0.341 m -1.055,0.473 c -0.336,-0.243 -0.674,-0.481 -1.016,-0.716 0.27,-0.123 0.543,-0.239 0.818,-0.35 0.352,0.222 0.7,0.449 1.045,0.68 -0.285,0.123 -0.568,0.252 -0.847,0.386 m -1.017,0.521 c -0.327,-0.254 -0.656,-0.507 -0.987,-0.755 0.262,-0.137 0.527,-0.268 0.795,-0.393 0.341,0.236 0.681,0.476 1.017,0.72 -0.278,0.137 -0.553,0.28 -0.825,0.428 m -0.979,0.567 c -0.318,-0.267 -0.636,-0.533 -0.957,-0.795 0.254,-0.15 0.511,-0.294 0.771,-0.433 0.332,0.249 0.66,0.503 0.987,0.759 -0.271,0.151 -0.537,0.307 -0.801,0.469 m -0.942,0.608 -0.925,-0.834 c 0.245,-0.162 0.494,-0.319 0.745,-0.471 0.321,0.264 0.64,0.53 0.956,0.799 -0.261,0.164 -0.52,0.332 -0.776,0.506 m -0.902,0.647 -0.896,-0.873 c 0.236,-0.174 0.476,-0.342 0.719,-0.506 l 0.925,0.838 c -0.253,0.176 -0.502,0.356 -0.748,0.541 m 19.333,-3.648 -0.374,-0.131 0.234,0.047 0.418,0.121 -0.278,-0.037 z m -1.501,-0.154 c -0.267,-0.102 -0.534,-0.2 -0.803,-0.296 l 0.632,0.09 c 0.274,0.084 0.546,0.172 0.819,0.263 -0.216,-0.022 -0.432,-0.041 -0.648,-0.057 m -1.459,-0.073 c -0.332,-0.135 -0.664,-0.266 -0.999,-0.393 0.268,0.02 0.535,0.043 0.802,0.07 0.338,0.113 0.675,0.232 1.011,0.354 -0.272,-0.014 -0.543,-0.024 -0.814,-0.031 m -1.417,0.005 c -0.366,-0.16 -0.733,-0.315 -1.102,-0.464 0.295,0.005 0.59,0.014 0.885,0.028 0.374,0.136 0.745,0.277 1.115,0.424 -0.299,-10e-4 -0.599,0.003 -0.898,0.012 m -1.375,0.079 c -0.383,-0.179 -0.769,-0.353 -1.158,-0.521 0.308,-0.014 0.617,-0.022 0.925,-0.024 0.394,0.155 0.785,0.316 1.173,0.483 -0.313,0.015 -0.627,0.035 -0.94,0.062 m -1.333,0.151 c -0.393,-0.197 -0.789,-0.388 -1.187,-0.573 0.313,-0.032 0.627,-0.058 0.941,-0.077 0.404,0.172 0.806,0.35 1.204,0.534 -0.32,0.032 -0.64,0.071 -0.958,0.116 m -1.292,0.218 c -0.397,-0.212 -0.796,-0.419 -1.198,-0.619 0.314,-0.05 0.628,-0.094 0.943,-0.132 0.409,0.187 0.814,0.381 1.218,0.581 -0.323,0.05 -0.644,0.107 -0.963,0.17 m -1.253,0.284 c -0.395,-0.227 -0.794,-0.448 -1.195,-0.664 0.31,-0.068 0.623,-0.13 0.936,-0.186 0.409,0.202 0.814,0.411 1.217,0.626 -0.321,0.068 -0.64,0.143 -0.958,0.224 m -1.212,0.345 c -0.392,-0.241 -0.786,-0.476 -1.184,-0.706 0.305,-0.087 0.612,-0.166 0.922,-0.239 0.406,0.217 0.809,0.44 1.209,0.669 -0.318,0.086 -0.633,0.178 -0.947,0.276 m -1.172,0.404 c -0.387,-0.254 -0.776,-0.504 -1.168,-0.749 0.299,-0.102 0.6,-0.199 0.904,-0.289 0.401,0.232 0.799,0.469 1.194,0.712 -0.312,0.102 -0.623,0.211 -0.93,0.326 m -1.133,0.459 c -0.381,-0.267 -0.762,-0.531 -1.148,-0.79 0.292,-0.119 0.587,-0.231 0.884,-0.338 0.395,0.247 0.786,0.498 1.174,0.754 -0.306,0.119 -0.609,0.244 -0.91,0.374 m -1.095,0.512 c -0.372,-0.28 -0.746,-0.558 -1.123,-0.832 0.285,-0.134 0.571,-0.262 0.861,-0.383 0.387,0.26 0.77,0.526 1.151,0.795 -0.3,0.134 -0.596,0.274 -0.889,0.42 m -1.055,0.561 c -0.364,-0.294 -0.729,-0.585 -1.097,-0.874 0.276,-0.148 0.555,-0.29 0.836,-0.427 0.378,0.275 0.753,0.554 1.125,0.837 -0.292,0.149 -0.58,0.304 -0.864,0.464 m -1.017,0.606 c -0.354,-0.307 -0.711,-0.612 -1.069,-0.915 0.267,-0.161 0.537,-0.317 0.811,-0.467 0.367,0.289 0.733,0.582 1.096,0.877 -0.282,0.163 -0.562,0.331 -0.838,0.505 m -0.978,0.649 -1.04,-0.956 c 0.257,-0.174 0.518,-0.342 0.782,-0.506 0.359,0.304 0.714,0.611 1.069,0.919 -0.273,0.176 -0.544,0.357 -0.811,0.543 m -0.938,0.687 -1.014,-0.997 c 0.249,-0.185 0.501,-0.365 0.756,-0.54 l 1.04,0.96 c -0.264,0.187 -0.525,0.38 -0.782,0.577 m 21.44,-3.906 -0.389,-0.145 0.242,0.055 0.433,0.135 -0.286,-0.045 z m -1.55,-0.198 c -0.278,-0.112 -0.558,-0.222 -0.838,-0.328 l 0.655,0.111 c 0.285,0.094 0.57,0.192 0.853,0.292 -0.223,-0.027 -0.447,-0.053 -0.67,-0.075 m -1.514,-0.116 c -0.348,-0.149 -0.699,-0.294 -1.051,-0.435 0.279,0.028 0.559,0.06 0.837,0.096 0.355,0.126 0.708,0.258 1.059,0.394 -0.281,-0.022 -0.563,-0.04 -0.845,-0.055 m -1.474,-0.035 c -0.387,-0.176 -0.777,-0.347 -1.169,-0.513 0.309,0.013 0.618,0.032 0.927,0.055 0.394,0.151 0.787,0.309 1.177,0.471 -0.312,-0.009 -0.624,-0.014 -0.935,-0.013 m -1.437,0.043 c -0.41,-0.199 -0.823,-0.391 -1.238,-0.577 0.325,-0.005 0.649,-0.003 0.974,0.004 0.418,0.172 0.834,0.351 1.247,0.535 -0.328,0.007 -0.656,0.019 -0.983,0.038 m -1.398,0.116 c -0.423,-0.216 -0.849,-0.428 -1.277,-0.633 0.331,-0.023 0.663,-0.04 0.994,-0.051 0.433,0.191 0.862,0.389 1.289,0.593 -0.336,0.024 -0.672,0.054 -1.006,0.091 m -1.36,0.189 c -0.43,-0.234 -0.861,-0.463 -1.297,-0.684 0.332,-0.043 0.666,-0.078 0.999,-0.108 0.441,0.208 0.877,0.423 1.311,0.644 -0.338,0.043 -0.676,0.092 -1.013,0.148 m -1.322,0.256 c -0.431,-0.249 -0.865,-0.494 -1.303,-0.732 0.33,-0.061 0.662,-0.115 0.995,-0.163 0.443,0.224 0.883,0.455 1.32,0.692 -0.339,0.061 -0.676,0.129 -1.012,0.203 m -1.283,0.322 c -0.43,-0.264 -0.864,-0.524 -1.3,-0.778 0.326,-0.079 0.654,-0.152 0.983,-0.218 0.443,0.24 0.883,0.486 1.32,0.738 -0.336,0.08 -0.671,0.166 -1.003,0.258 m -1.244,0.385 c -0.427,-0.279 -0.857,-0.554 -1.291,-0.823 0.321,-0.098 0.643,-0.188 0.967,-0.272 0.44,0.255 0.877,0.517 1.312,0.784 -0.332,0.097 -0.661,0.2 -0.988,0.311 m -1.206,0.444 c -0.422,-0.294 -0.848,-0.583 -1.276,-0.868 0.313,-0.114 0.629,-0.222 0.947,-0.323 0.436,0.271 0.869,0.547 1.299,0.828 -0.326,0.115 -0.649,0.235 -0.97,0.363 m -1.167,0.499 c -0.417,-0.307 -0.836,-0.611 -1.257,-0.911 0.305,-0.13 0.613,-0.255 0.923,-0.372 0.431,0.286 0.858,0.577 1.282,0.872 -0.319,0.131 -0.635,0.268 -0.948,0.411 m -1.129,0.553 c -0.41,-0.321 -0.821,-0.64 -1.236,-0.955 0.297,-0.145 0.598,-0.285 0.9,-0.419 0.423,0.301 0.843,0.607 1.26,0.916 -0.311,0.147 -0.619,0.299 -0.924,0.458 m -1.089,0.602 c -0.403,-0.335 -0.807,-0.668 -1.213,-0.998 0.288,-0.16 0.579,-0.314 0.874,-0.463 0.415,0.316 0.827,0.637 1.237,0.959 -0.302,0.162 -0.602,0.329 -0.898,0.502 m -1.05,0.648 c -0.395,-0.349 -0.791,-0.696 -1.189,-1.041 0.279,-0.174 0.561,-0.342 0.847,-0.504 0.406,0.332 0.81,0.666 1.213,1.002 -0.294,0.176 -0.585,0.356 -0.871,0.543 m -1.01,0.689 -1.165,-1.082 c 0.27,-0.186 0.542,-0.367 0.818,-0.542 0.398,0.347 0.793,0.695 1.188,1.045 -0.284,0.188 -0.564,0.381 -0.841,0.579 m -0.97,0.728 -1.14,-1.124 c 0.259,-0.197 0.522,-0.389 0.788,-0.577 l 1.163,1.088 c -0.274,0.2 -0.545,0.404 -0.811,0.613 m 23.503,-4.196 -0.4,-0.158 0.246,0.062 0.445,0.149 -0.291,-0.053 z m -1.583,-0.24 c -0.287,-0.122 -0.576,-0.242 -0.866,-0.358 l 0.673,0.13 c 0.293,0.104 0.586,0.212 0.877,0.322 -0.228,-0.034 -0.456,-0.065 -0.684,-0.094 m -1.551,-0.156 c -0.363,-0.163 -0.727,-0.322 -1.094,-0.475 0.289,0.036 0.577,0.075 0.864,0.12 0.367,0.139 0.733,0.283 1.097,0.432 -0.289,-0.029 -0.577,-0.055 -0.867,-0.077 m -1.518,-0.074 c -0.406,-0.192 -0.814,-0.379 -1.225,-0.561 0.321,0.022 0.641,0.05 0.961,0.082 0.412,0.166 0.821,0.339 1.227,0.517 -0.321,-0.018 -0.642,-0.03 -0.963,-0.038 m -1.485,0.006 c -0.433,-0.216 -0.867,-0.427 -1.306,-0.631 0.339,0.004 0.676,0.015 1.014,0.031 0.439,0.19 0.875,0.386 1.308,0.588 -0.339,-0.002 -0.677,0.002 -1.016,0.012 m -1.451,0.083 c -0.449,-0.237 -0.901,-0.468 -1.355,-0.692 0.345,-0.015 0.692,-0.023 1.038,-0.024 0.457,0.209 0.911,0.426 1.361,0.649 -0.348,0.016 -0.696,0.038 -1.044,0.067 m -1.416,0.157 c -0.458,-0.255 -0.92,-0.504 -1.385,-0.747 0.349,-0.034 0.698,-0.062 1.047,-0.082 0.468,0.228 0.933,0.463 1.395,0.705 -0.353,0.034 -0.706,0.076 -1.057,0.124 m -1.379,0.229 c -0.465,-0.272 -0.932,-0.539 -1.402,-0.799 0.347,-0.054 0.696,-0.101 1.046,-0.14 0.474,0.246 0.945,0.499 1.412,0.757 -0.353,0.054 -0.705,0.115 -1.056,0.182 m -1.345,0.298 c -0.466,-0.289 -0.935,-0.572 -1.408,-0.849 0.344,-0.073 0.69,-0.139 1.037,-0.197 0.478,0.262 0.951,0.532 1.422,0.807 -0.352,0.073 -0.702,0.152 -1.051,0.239 m -1.308,0.364 c -0.465,-0.305 -0.934,-0.604 -1.406,-0.898 0.339,-0.091 0.68,-0.176 1.023,-0.253 0.478,0.279 0.951,0.565 1.422,0.856 -0.348,0.091 -0.695,0.189 -1.039,0.295 m -1.271,0.426 c -0.463,-0.319 -0.929,-0.634 -1.398,-0.944 0.332,-0.109 0.667,-0.212 1.004,-0.308 0.476,0.296 0.948,0.597 1.416,0.904 -0.343,0.109 -0.684,0.225 -1.022,0.348 m -1.233,0.486 c -0.46,-0.334 -0.921,-0.665 -1.387,-0.99 0.325,-0.127 0.653,-0.247 0.983,-0.36 0.472,0.311 0.941,0.629 1.406,0.95 -0.337,0.127 -0.671,0.26 -1.002,0.4 m -1.196,0.543 c -0.455,-0.349 -0.912,-0.695 -1.372,-1.037 0.317,-0.143 0.637,-0.279 0.96,-0.409 0.467,0.328 0.93,0.66 1.391,0.996 -0.329,0.144 -0.656,0.293 -0.979,0.45 m -1.158,0.595 c -0.449,-0.363 -0.9,-0.724 -1.354,-1.081 0.308,-0.159 0.62,-0.31 0.934,-0.456 0.461,0.343 0.919,0.69 1.375,1.041 -0.322,0.159 -0.64,0.325 -0.955,0.496 m -1.118,0.645 c -0.443,-0.377 -0.889,-0.753 -1.335,-1.126 0.299,-0.173 0.601,-0.339 0.907,-0.5 0.454,0.359 0.906,0.721 1.356,1.086 -0.313,0.174 -0.623,0.354 -0.928,0.54 m -1.078,0.69 -1.315,-1.17 c 0.289,-0.185 0.582,-0.366 0.878,-0.541 0.447,0.375 0.892,0.752 1.335,1.131 -0.303,0.188 -0.603,0.382 -0.898,0.58 m -1.038,0.732 -1.294,-1.212 c 0.278,-0.199 0.561,-0.391 0.847,-0.579 l 1.315,1.174 c -0.293,0.201 -0.583,0.407 -0.868,0.617 m -0.997,0.77 -1.273,-1.254 c 0.268,-0.21 0.54,-0.415 0.816,-0.614 l 1.294,1.218 c -0.283,0.212 -0.561,0.429 -0.837,0.65 m 25.471,-4.533 -0.403,-0.169 0.25,0.068 0.446,0.161 -0.293,-0.06 z m -1.595,-0.278 c -0.293,-0.131 -0.587,-0.26 -0.883,-0.385 l 0.683,0.148 c 0.298,0.112 0.595,0.228 0.891,0.347 -0.23,-0.039 -0.46,-0.076 -0.691,-0.11 m -1.571,-0.193 c -0.372,-0.175 -0.746,-0.347 -1.122,-0.513 0.294,0.044 0.587,0.092 0.88,0.143 0.376,0.151 0.75,0.307 1.121,0.468 -0.293,-0.037 -0.585,-0.07 -0.879,-0.098 m -1.544,-0.11 c -0.419,-0.208 -0.842,-0.41 -1.266,-0.606 0.329,0.03 0.657,0.066 0.985,0.107 0.423,0.181 0.843,0.367 1.262,0.559 -0.327,-0.025 -0.654,-0.045 -0.981,-0.06 m -1.517,-0.029 c -0.45,-0.233 -0.902,-0.461 -1.357,-0.682 0.347,0.013 0.694,0.032 1.041,0.058 0.455,0.205 0.906,0.417 1.355,0.635 -0.346,-0.01 -0.693,-0.013 -1.039,-0.011 m -1.488,0.05 c -0.47,-0.256 -0.943,-0.506 -1.419,-0.749 0.357,-0.005 0.715,-0.005 1.072,0.003 0.476,0.227 0.949,0.461 1.418,0.702 -0.357,0.008 -0.714,0.023 -1.071,0.044 m -1.458,0.127 c -0.483,-0.276 -0.97,-0.545 -1.46,-0.809 0.362,-0.025 0.724,-0.044 1.086,-0.056 0.491,0.247 0.978,0.502 1.462,0.763 -0.363,0.027 -0.726,0.061 -1.088,0.102 m -1.426,0.201 c -0.491,-0.294 -0.987,-0.582 -1.486,-0.864 0.361,-0.047 0.725,-0.085 1.088,-0.117 0.501,0.267 0.998,0.54 1.491,0.82 -0.365,0.046 -0.729,0.1 -1.093,0.161 m -1.393,0.273 c -0.497,-0.312 -0.998,-0.618 -1.503,-0.918 0.36,-0.066 0.721,-0.124 1.083,-0.176 0.507,0.285 1.01,0.577 1.51,0.874 -0.365,0.066 -0.729,0.14 -1.09,0.22 m -1.361,0.342 c -0.499,-0.329 -1.003,-0.652 -1.51,-0.969 0.356,-0.086 0.713,-0.164 1.072,-0.234 0.51,0.302 1.016,0.611 1.519,0.925 -0.362,0.086 -0.722,0.178 -1.081,0.278 m -1.326,0.409 c -0.5,-0.346 -1.004,-0.686 -1.511,-1.02 0.35,-0.104 0.702,-0.202 1.055,-0.291 0.512,0.319 1.018,0.645 1.523,0.976 -0.358,0.105 -0.714,0.216 -1.067,0.335 m -1.291,0.47 c -0.5,-0.36 -1.002,-0.717 -1.508,-1.068 0.344,-0.123 0.689,-0.238 1.037,-0.346 0.51,0.337 1.017,0.679 1.52,1.026 -0.352,0.122 -0.702,0.252 -1.049,0.388 m -1.256,0.531 c -0.496,-0.376 -0.996,-0.749 -1.499,-1.117 0.335,-0.139 0.674,-0.272 1.014,-0.398 0.508,0.354 1.013,0.712 1.514,1.075 -0.346,0.14 -0.688,0.287 -1.029,0.44 m -1.218,0.588 c -0.494,-0.392 -0.99,-0.78 -1.489,-1.165 0.327,-0.156 0.658,-0.305 0.99,-0.448 0.505,0.37 1.006,0.745 1.504,1.123 -0.338,0.157 -0.673,0.32 -1.005,0.49 m -1.181,0.64 c -0.489,-0.406 -0.98,-0.81 -1.475,-1.211 0.318,-0.171 0.64,-0.336 0.964,-0.495 0.5,0.386 0.996,0.777 1.491,1.17 -0.33,0.172 -0.656,0.351 -0.98,0.536 m -1.141,0.689 c -0.485,-0.421 -0.972,-0.84 -1.46,-1.257 0.308,-0.185 0.62,-0.365 0.935,-0.539 0.494,0.403 0.986,0.809 1.477,1.217 -0.321,0.187 -0.638,0.38 -0.952,0.579 m -1.101,0.734 -1.445,-1.301 c 0.298,-0.199 0.599,-0.392 0.905,-0.58 0.489,0.419 0.976,0.84 1.461,1.262 -0.31,0.201 -0.617,0.408 -0.921,0.619 m -1.06,0.775 -1.429,-1.345 c 0.288,-0.21 0.578,-0.416 0.873,-0.617 l 1.446,1.307 c -0.3,0.213 -0.597,0.431 -0.89,0.655 m -1.017,0.81 c -0.473,-0.46 -0.944,-0.922 -1.414,-1.385 0.276,-0.222 0.556,-0.439 0.841,-0.651 l 1.429,1.35 c -0.29,0.224 -0.575,0.453 -0.856,0.686 m 27.298,-4.928 -0.402,-0.178 0.249,0.074 0.445,0.17 -0.292,-0.066 z m -1.588,-0.311 c -0.294,-0.138 -0.59,-0.275 -0.888,-0.408 l 0.685,0.164 c 0.298,0.12 0.596,0.243 0.892,0.369 -0.229,-0.044 -0.459,-0.085 -0.689,-0.125 m -1.572,-0.226 c -0.377,-0.186 -0.756,-0.368 -1.138,-0.545 0.297,0.051 0.592,0.105 0.888,0.164 0.378,0.161 0.756,0.327 1.13,0.498 -0.293,-0.043 -0.586,-0.082 -0.88,-0.117 m -1.552,-0.143 c -0.428,-0.22 -0.859,-0.436 -1.291,-0.646 0.333,0.039 0.665,0.082 0.996,0.131 0.43,0.193 0.857,0.392 1.282,0.597 -0.329,-0.033 -0.658,-0.06 -0.987,-0.082 m -1.532,-0.061 c -0.462,-0.248 -0.926,-0.491 -1.394,-0.728 0.354,0.021 0.707,0.049 1.06,0.083 0.464,0.219 0.926,0.446 1.384,0.679 -0.35,-0.018 -0.7,-0.029 -1.05,-0.034 m -1.508,0.02 c -0.486,-0.273 -0.975,-0.54 -1.467,-0.8 0.366,0.002 0.731,0.011 1.095,0.027 0.49,0.243 0.976,0.494 1.459,0.751 -0.363,10e-4 -0.725,0.008 -1.087,0.022 m -1.484,0.098 c -0.502,-0.295 -1.009,-0.584 -1.518,-0.865 0.371,-0.018 0.742,-0.029 1.113,-0.033 0.508,0.266 1.013,0.538 1.513,0.817 -0.37,0.02 -0.739,0.047 -1.108,0.081 m -1.457,0.174 c -0.515,-0.315 -1.034,-0.623 -1.556,-0.926 0.373,-0.038 0.746,-0.069 1.12,-0.093 0.522,0.286 1.039,0.579 1.553,0.878 -0.373,0.04 -0.746,0.087 -1.117,0.141 m -1.43,0.249 c -0.523,-0.334 -1.05,-0.662 -1.581,-0.983 0.371,-0.059 0.745,-0.111 1.119,-0.154 0.53,0.305 1.058,0.617 1.581,0.936 -0.374,0.059 -0.747,0.127 -1.119,0.201 m -1.4,0.32 c -0.529,-0.352 -1.062,-0.698 -1.599,-1.038 0.369,-0.079 0.739,-0.151 1.111,-0.215 0.538,0.324 1.071,0.655 1.601,0.992 -0.373,0.08 -0.743,0.167 -1.113,0.261 m -1.369,0.389 c -0.533,-0.369 -1.069,-0.733 -1.61,-1.091 0.364,-0.099 0.731,-0.19 1.098,-0.274 0.542,0.342 1.08,0.692 1.614,1.046 -0.37,0.099 -0.737,0.206 -1.102,0.319 m -1.338,0.456 c -0.535,-0.386 -1.072,-0.768 -1.614,-1.144 0.358,-0.118 0.718,-0.228 1.081,-0.331 0.544,0.361 1.084,0.727 1.62,1.099 -0.364,0.118 -0.727,0.243 -1.087,0.376 m -1.305,0.518 c -0.535,-0.402 -1.073,-0.801 -1.615,-1.195 0.352,-0.135 0.706,-0.264 1.062,-0.386 0.545,0.379 1.085,0.762 1.623,1.151 -0.36,0.136 -0.716,0.28 -1.07,0.43 m -1.27,0.578 c -0.534,-0.418 -1.071,-0.834 -1.611,-1.245 0.343,-0.153 0.689,-0.299 1.039,-0.438 0.543,0.395 1.084,0.796 1.621,1.201 -0.353,0.154 -0.702,0.315 -1.049,0.482 m -1.234,0.634 c -0.533,-0.434 -1.068,-0.865 -1.606,-1.294 0.335,-0.169 0.673,-0.332 1.015,-0.488 0.541,0.413 1.08,0.83 1.615,1.251 -0.344,0.171 -0.686,0.348 -1.024,0.531 m -1.197,0.686 c -0.53,-0.449 -1.063,-0.896 -1.598,-1.341 0.326,-0.184 0.655,-0.363 0.987,-0.535 0.539,0.43 1.075,0.863 1.609,1.299 -0.336,0.187 -0.668,0.379 -0.998,0.577 m -1.158,0.735 -1.589,-1.388 c 0.317,-0.198 0.636,-0.392 0.959,-0.578 0.534,0.446 1.068,0.895 1.599,1.346 -0.326,0.201 -0.649,0.407 -0.969,0.62 m -1.117,0.777 -1.579,-1.432 c 0.306,-0.211 0.615,-0.417 0.927,-0.618 l 1.59,1.393 c -0.317,0.214 -0.629,0.433 -0.938,0.657 m -1.077,0.817 -1.567,-1.474 c 0.294,-0.223 0.592,-0.442 0.894,-0.655 l 1.579,1.438 c -0.306,0.225 -0.607,0.456 -0.906,0.691 m -1.032,0.851 c -0.521,-0.503 -1.04,-1.008 -1.558,-1.514 0.283,-0.234 0.57,-0.463 0.861,-0.687 l 1.567,1.48 c -0.294,0.236 -0.584,0.476 -0.87,0.721 m 28.938,-5.392 -0.397,-0.186 0.244,0.078 0.439,0.179 -0.286,-0.071 z m -1.561,-0.338 c -0.293,-0.145 -0.587,-0.288 -0.882,-0.428 l 0.677,0.177 c 0.295,0.126 0.59,0.256 0.883,0.388 -0.225,-0.048 -0.452,-0.094 -0.678,-0.137 m -1.554,-0.255 c -0.377,-0.195 -0.756,-0.386 -1.138,-0.573 0.295,0.057 0.59,0.118 0.883,0.182 0.378,0.17 0.753,0.345 1.126,0.524 -0.289,-0.048 -0.58,-0.092 -0.871,-0.133 m -1.542,-0.171 c -0.43,-0.232 -0.863,-0.459 -1.299,-0.68 0.332,0.045 0.665,0.095 0.997,0.151 0.43,0.204 0.858,0.414 1.283,0.628 -0.326,-0.038 -0.654,-0.071 -0.981,-0.099 m -1.528,-0.09 c -0.467,-0.262 -0.938,-0.518 -1.412,-0.768 0.356,0.029 0.71,0.063 1.065,0.105 0.468,0.232 0.934,0.471 1.396,0.716 -0.35,-0.024 -0.699,-0.041 -1.049,-0.053 m -1.511,-0.008 c -0.495,-0.288 -0.993,-0.57 -1.495,-0.846 0.369,0.01 0.737,0.027 1.105,0.05 0.497,0.258 0.99,0.523 1.48,0.794 -0.363,-0.006 -0.726,-0.005 -1.09,0.002 m -1.492,0.071 c -0.516,-0.311 -1.035,-0.617 -1.558,-0.916 0.376,-0.01 0.752,-0.013 1.128,-0.009 0.519,0.281 1.033,0.57 1.545,0.865 -0.372,0.013 -0.744,0.033 -1.115,0.06 m -1.472,0.15 c -0.531,-0.334 -1.067,-0.661 -1.606,-0.981 0.379,-0.031 0.76,-0.055 1.14,-0.071 0.536,0.303 1.067,0.613 1.595,0.93 -0.377,0.033 -0.754,0.074 -1.129,0.122 m -1.449,0.225 c -0.544,-0.354 -1.092,-0.701 -1.643,-1.043 0.38,-0.052 0.76,-0.096 1.142,-0.133 0.549,0.324 1.094,0.655 1.635,0.993 -0.38,0.053 -0.758,0.114 -1.134,0.183 m -1.426,0.299 c -0.553,-0.373 -1.109,-0.741 -1.669,-1.101 0.378,-0.073 0.757,-0.138 1.138,-0.196 0.558,0.345 1.113,0.696 1.664,1.053 -0.379,0.074 -0.757,0.155 -1.133,0.244 m -1.399,0.371 c -0.559,-0.392 -1.123,-0.778 -1.69,-1.158 0.375,-0.094 0.751,-0.179 1.129,-0.257 0.567,0.364 1.129,0.734 1.687,1.11 -0.377,0.094 -0.753,0.196 -1.126,0.305 m -1.372,0.439 c -0.564,-0.41 -1.132,-0.815 -1.704,-1.214 0.37,-0.112 0.743,-0.217 1.117,-0.315 0.571,0.383 1.139,0.772 1.703,1.166 -0.374,0.114 -0.746,0.235 -1.116,0.363 m -1.341,0.505 c -0.568,-0.427 -1.139,-0.85 -1.714,-1.267 0.364,-0.132 0.73,-0.256 1.099,-0.373 0.576,0.401 1.147,0.808 1.715,1.221 -0.369,0.132 -0.736,0.272 -1.1,0.419 m -1.311,0.568 c -0.57,-0.444 -1.143,-0.884 -1.719,-1.32 0.356,-0.15 0.716,-0.292 1.079,-0.428 0.578,0.42 1.152,0.845 1.722,1.274 -0.363,0.151 -0.724,0.309 -1.082,0.474 m -1.277,0.627 c -0.572,-0.461 -1.146,-0.918 -1.723,-1.371 0.35,-0.167 0.702,-0.327 1.058,-0.481 0.578,0.438 1.153,0.88 1.725,1.326 -0.357,0.169 -0.71,0.344 -1.06,0.526 m -1.244,0.682 c -0.571,-0.477 -1.144,-0.951 -1.721,-1.421 0.34,-0.183 0.685,-0.36 1.032,-0.53 0.578,0.455 1.153,0.915 1.726,1.377 -0.349,0.185 -0.695,0.376 -1.037,0.574 m -1.206,0.733 c -0.571,-0.492 -1.145,-0.981 -1.719,-1.469 0.331,-0.198 0.665,-0.39 1.005,-0.577 0.576,0.473 1.151,0.949 1.724,1.427 -0.34,0.201 -0.677,0.407 -1.01,0.619 m -1.168,0.779 -1.715,-1.515 c 0.321,-0.212 0.646,-0.418 0.974,-0.619 0.576,0.49 1.149,0.982 1.722,1.475 -0.331,0.214 -0.658,0.434 -0.981,0.659 m -1.127,0.821 -1.712,-1.558 c 0.311,-0.225 0.625,-0.444 0.944,-0.658 l 1.717,1.521 c -0.321,0.226 -0.637,0.458 -0.949,0.695 m -1.086,0.859 -1.706,-1.601 c 0.299,-0.235 0.602,-0.466 0.909,-0.691 l 1.712,1.564 c -0.309,0.237 -0.614,0.48 -0.915,0.728 m -1.042,0.889 c -0.568,-0.543 -1.134,-1.088 -1.697,-1.635 0.287,-0.245 0.575,-0.49 0.87,-0.725 l 1.706,1.605 c -0.297,0.247 -0.59,0.499 -0.879,0.755 m 30.349,-5.936 -0.385,-0.191 0.236,0.081 0.425,0.184 -0.276,-0.074 z m -1.517,-0.359 c -0.287,-0.15 -0.575,-0.297 -0.864,-0.442 l 0.661,0.187 c 0.289,0.131 0.576,0.265 0.863,0.401 -0.22,-0.051 -0.44,-0.1 -0.66,-0.146 m -1.517,-0.277 c -0.371,-0.202 -0.745,-0.401 -1.121,-0.595 0.289,0.062 0.578,0.128 0.867,0.197 0.37,0.177 0.74,0.358 1.106,0.544 -0.283,-0.053 -0.567,-0.101 -0.852,-0.146 m -1.512,-0.195 c -0.427,-0.241 -0.857,-0.478 -1.29,-0.709 0.328,0.052 0.657,0.108 0.984,0.17 0.426,0.212 0.849,0.43 1.269,0.654 -0.32,-0.044 -0.641,-0.082 -0.963,-0.115 m -1.505,-0.113 c -0.467,-0.274 -0.938,-0.542 -1.412,-0.803 0.353,0.035 0.705,0.077 1.056,0.125 0.466,0.242 0.93,0.491 1.39,0.747 -0.345,-0.03 -0.689,-0.053 -1.034,-0.069 m -1.496,-0.033 c -0.498,-0.301 -0.998,-0.596 -1.504,-0.885 0.368,0.017 0.735,0.04 1.102,0.07 0.497,0.271 0.991,0.547 1.482,0.83 -0.36,-0.012 -0.72,-0.016 -1.08,-0.015 m -1.484,0.048 c -0.521,-0.327 -1.046,-0.647 -1.576,-0.96 0.376,-0.003 0.753,0 1.13,0.011 0.522,0.295 1.04,0.597 1.555,0.906 -0.37,0.006 -0.739,0.021 -1.109,0.043 m -1.469,0.126 c -0.541,-0.349 -1.086,-0.692 -1.635,-1.029 0.381,-0.024 0.764,-0.041 1.146,-0.05 0.543,0.318 1.082,0.643 1.616,0.975 -0.376,0.027 -0.752,0.062 -1.127,0.104 m -1.453,0.204 c -0.556,-0.371 -1.117,-0.736 -1.682,-1.094 0.384,-0.046 0.768,-0.084 1.154,-0.114 0.559,0.34 1.114,0.688 1.665,1.042 -0.38,0.048 -0.759,0.103 -1.137,0.166 m -1.435,0.279 c -0.568,-0.391 -1.142,-0.777 -1.719,-1.157 0.383,-0.067 0.768,-0.126 1.154,-0.176 0.573,0.361 1.142,0.73 1.706,1.105 -0.381,0.069 -0.762,0.145 -1.141,0.228 m -1.413,0.353 c -0.579,-0.411 -1.162,-0.818 -1.75,-1.217 0.382,-0.088 0.765,-0.168 1.149,-0.24 0.584,0.383 1.164,0.772 1.739,1.167 -0.381,0.09 -0.76,0.186 -1.138,0.29 m -1.39,0.424 c -0.588,-0.431 -1.179,-0.856 -1.775,-1.276 0.378,-0.108 0.759,-0.208 1.14,-0.301 0.593,0.403 1.181,0.812 1.766,1.227 -0.379,0.109 -0.756,0.226 -1.131,0.35 m -1.366,0.492 c -0.594,-0.449 -1.191,-0.894 -1.793,-1.333 0.373,-0.128 0.749,-0.248 1.127,-0.36 0.599,0.422 1.195,0.85 1.787,1.284 -0.376,0.129 -0.75,0.266 -1.121,0.409 m -1.338,0.557 c -0.599,-0.467 -1.201,-0.93 -1.808,-1.388 0.367,-0.147 0.737,-0.286 1.11,-0.417 0.605,0.441 1.206,0.888 1.803,1.34 -0.371,0.148 -0.74,0.303 -1.105,0.465 m -1.309,0.619 c -0.603,-0.484 -1.21,-0.965 -1.82,-1.442 0.361,-0.164 0.724,-0.322 1.091,-0.472 0.609,0.46 1.214,0.926 1.816,1.395 -0.365,0.166 -0.728,0.34 -1.087,0.519 m -1.278,0.676 c -0.606,-0.5 -1.216,-0.998 -1.827,-1.493 0.352,-0.182 0.708,-0.356 1.068,-0.524 0.611,0.479 1.22,0.962 1.825,1.448 -0.359,0.183 -0.714,0.374 -1.066,0.569 m -1.244,0.731 c -0.609,-0.517 -1.22,-1.031 -1.834,-1.543 0.345,-0.198 0.693,-0.389 1.044,-0.573 0.613,0.496 1.224,0.996 1.832,1.499 -0.351,0.2 -0.698,0.405 -1.042,0.617 m -1.209,0.779 c -0.611,-0.531 -1.223,-1.062 -1.837,-1.591 0.335,-0.212 0.674,-0.418 1.016,-0.618 0.614,0.515 1.226,1.031 1.837,1.55 -0.343,0.214 -0.681,0.434 -1.016,0.659 m -1.17,0.824 -1.84,-1.636 c 0.324,-0.225 0.653,-0.445 0.985,-0.659 l 1.84,1.597 c -0.332,0.228 -0.661,0.46 -0.985,0.698 m -1.131,0.863 -1.841,-1.678 c 0.314,-0.237 0.632,-0.469 0.953,-0.696 l 1.841,1.642 c -0.321,0.239 -0.639,0.483 -0.953,0.732 m -1.089,0.897 -1.838,-1.713 c 0.303,-0.247 0.605,-0.494 0.915,-0.732 l 1.842,1.684 c -0.31,0.249 -0.616,0.503 -0.919,0.761 m -1.045,0.925 c -0.614,-0.582 -1.227,-1.164 -1.839,-1.749 0.292,-0.257 0.589,-0.509 0.911,-0.728 l 1.81,1.692 c -0.297,0.257 -0.592,0.519 -0.882,0.785 m 31.494,-6.565 -0.37,-0.195 0.225,0.083 0.408,0.189 -0.263,-0.077 z m -1.455,-0.373 c -0.277,-0.153 -0.556,-0.304 -0.835,-0.452 l 0.637,0.194 c 0.278,0.134 0.556,0.271 0.832,0.411 -0.211,-0.053 -0.422,-0.104 -0.634,-0.153 m -1.461,-0.293 c -0.362,-0.208 -0.726,-0.411 -1.093,-0.611 0.281,0.066 0.561,0.135 0.841,0.208 0.359,0.182 0.717,0.368 1.073,0.558 -0.273,-0.056 -0.546,-0.107 -0.821,-0.155 m -1.465,-0.213 c -0.418,-0.249 -0.841,-0.492 -1.265,-0.73 0.32,0.056 0.641,0.117 0.959,0.184 0.417,0.218 0.83,0.443 1.239,0.672 -0.31,-0.047 -0.621,-0.089 -0.933,-0.126 m -1.465,-0.133 c -0.461,-0.282 -0.925,-0.558 -1.393,-0.828 0.346,0.04 0.691,0.087 1.035,0.14 0.458,0.251 0.913,0.508 1.364,0.77 -0.335,-0.033 -0.67,-0.061 -1.006,-0.082 m -1.463,-0.052 c -0.494,-0.312 -0.992,-0.617 -1.493,-0.915 0.362,0.022 0.724,0.051 1.085,0.087 0.492,0.279 0.98,0.565 1.464,0.858 -0.352,-0.017 -0.704,-0.027 -1.056,-0.03 m -1.457,0.028 c -0.521,-0.338 -1.046,-0.67 -1.575,-0.995 0.373,0.003 0.745,0.012 1.118,0.029 0.52,0.306 1.035,0.618 1.546,0.937 -0.363,0.003 -0.726,0.012 -1.089,0.029 m -1.45,0.107 c -0.543,-0.363 -1.09,-0.719 -1.642,-1.069 0.379,-0.018 0.759,-0.029 1.139,-0.033 0.543,0.331 1.081,0.668 1.616,1.012 -0.372,0.023 -0.743,0.053 -1.113,0.09 m -1.439,0.185 c -0.562,-0.386 -1.128,-0.766 -1.699,-1.138 0.383,-0.04 0.767,-0.072 1.151,-0.096 0.563,0.353 1.121,0.714 1.675,1.082 -0.377,0.043 -0.753,0.094 -1.127,0.152 m -1.427,0.262 c -0.578,-0.408 -1.16,-0.81 -1.746,-1.205 0.384,-0.062 0.769,-0.115 1.156,-0.16 0.579,0.376 1.154,0.76 1.725,1.15 -0.38,0.064 -0.758,0.135 -1.135,0.215 m -1.412,0.336 c -0.591,-0.429 -1.186,-0.852 -1.787,-1.269 0.384,-0.082 0.77,-0.157 1.157,-0.223 0.593,0.398 1.182,0.803 1.767,1.215 -0.38,0.085 -0.759,0.177 -1.137,0.277 m -1.393,0.409 c -0.604,-0.449 -1.211,-0.893 -1.822,-1.33 0.382,-0.104 0.766,-0.199 1.152,-0.287 0.605,0.42 1.207,0.846 1.804,1.279 -0.381,0.105 -0.759,0.218 -1.134,0.338 m -1.375,0.48 c -0.613,-0.469 -1.229,-0.933 -1.85,-1.391 0.378,-0.123 0.759,-0.239 1.142,-0.347 0.616,0.44 1.228,0.887 1.835,1.339 -0.378,0.125 -0.754,0.258 -1.127,0.399 m -1.351,0.546 c -0.622,-0.488 -1.246,-0.971 -1.875,-1.448 0.374,-0.143 0.751,-0.279 1.13,-0.407 0.624,0.461 1.245,0.927 1.861,1.398 -0.374,0.145 -0.747,0.298 -1.116,0.457 m -1.327,0.61 c -0.629,-0.506 -1.26,-1.007 -1.895,-1.504 0.368,-0.162 0.739,-0.316 1.113,-0.463 0.632,0.48 1.26,0.965 1.884,1.455 -0.371,0.164 -0.739,0.334 -1.102,0.512 m -1.301,0.67 c -0.634,-0.522 -1.271,-1.042 -1.911,-1.557 0.362,-0.18 0.726,-0.352 1.094,-0.518 0.637,0.499 1.272,1.003 1.902,1.511 -0.365,0.182 -0.727,0.37 -1.085,0.564 m -1.27,0.727 c -0.639,-0.539 -1.282,-1.076 -1.925,-1.609 0.353,-0.196 0.711,-0.386 1.071,-0.569 0.642,0.518 1.282,1.04 1.918,1.565 -0.358,0.198 -0.712,0.403 -1.064,0.613 m -1.238,0.778 c -0.644,-0.555 -1.29,-1.107 -1.937,-1.658 0.345,-0.211 0.694,-0.417 1.046,-0.616 0.646,0.536 1.29,1.075 1.931,1.616 -0.35,0.213 -0.697,0.433 -1.04,0.658 m -1.203,0.825 -1.948,-1.704 c 0.336,-0.226 0.675,-0.446 1.019,-0.659 0.649,0.552 1.296,1.107 1.942,1.664 -0.342,0.228 -0.68,0.461 -1.013,0.699 m -1.167,0.867 -1.956,-1.748 c 0.326,-0.238 0.656,-0.471 0.989,-0.698 l 1.951,1.71 c -0.332,0.24 -0.66,0.486 -0.984,0.736 m -1.126,0.901 -1.96,-1.782 c 0.315,-0.249 0.63,-0.497 0.952,-0.736 l 1.959,1.753 c -0.321,0.25 -0.638,0.506 -0.951,0.765 m -1.085,0.933 -1.967,-1.819 c 0.306,-0.26 0.616,-0.514 0.952,-0.733 l 1.931,1.76 c -0.309,0.26 -0.615,0.524 -0.916,0.792 m -1.041,0.955 c -0.66,-0.615 -1.319,-1.232 -1.975,-1.851 0.291,-0.265 0.586,-0.527 0.885,-0.784 l 1.969,1.824 c -0.297,0.267 -0.59,0.537 -0.879,0.811 m 32.343,-7.281 -0.351,-0.196 0.215,0.084 0.385,0.19 -0.249,-0.078 z m -1.376,-0.38 c -0.265,-0.155 -0.53,-0.308 -0.798,-0.458 l 0.607,0.199 c 0.265,0.136 0.529,0.274 0.791,0.415 -0.199,-0.055 -0.4,-0.107 -0.6,-0.156 m -1.391,-0.304 c -0.348,-0.21 -0.698,-0.417 -1.05,-0.619 0.269,0.068 0.537,0.139 0.805,0.215 0.344,0.184 0.687,0.372 1.027,0.565 -0.26,-0.058 -0.521,-0.111 -0.782,-0.161 m -1.401,-0.225 c -0.405,-0.253 -0.813,-0.5 -1.224,-0.743 0.309,0.059 0.617,0.124 0.924,0.193 0.401,0.223 0.798,0.451 1.193,0.684 -0.297,-0.05 -0.595,-0.094 -0.893,-0.134 m -1.409,-0.147 c -0.448,-0.288 -0.9,-0.57 -1.356,-0.845 0.335,0.044 0.669,0.095 1.002,0.152 0.445,0.256 0.885,0.518 1.322,0.785 -0.322,-0.036 -0.645,-0.067 -0.968,-0.092 m -1.413,-0.067 c -0.483,-0.318 -0.971,-0.631 -1.462,-0.937 0.353,0.027 0.705,0.061 1.056,0.101 0.479,0.286 0.955,0.578 1.427,0.877 -0.34,-0.02 -0.68,-0.034 -1.021,-0.041 m -1.414,0.012 c -0.513,-0.346 -1.03,-0.686 -1.551,-1.02 0.364,0.007 0.729,0.022 1.093,0.043 0.509,0.314 1.015,0.634 1.516,0.961 -0.353,-0.002 -0.706,0.004 -1.058,0.016 m -1.413,0.091 c -0.538,-0.372 -1.08,-0.738 -1.627,-1.098 0.373,-0.013 0.746,-0.019 1.118,-0.018 0.536,0.34 1.067,0.686 1.594,1.039 -0.362,0.019 -0.724,0.044 -1.085,0.077 m -1.41,0.17 c -0.559,-0.398 -1.123,-0.788 -1.691,-1.172 0.377,-0.035 0.756,-0.062 1.135,-0.081 0.558,0.364 1.112,0.735 1.661,1.113 -0.369,0.039 -0.737,0.086 -1.105,0.14 m -1.402,0.246 c -0.578,-0.42 -1.161,-0.834 -1.749,-1.242 0.381,-0.056 0.763,-0.105 1.145,-0.145 0.579,0.388 1.152,0.783 1.72,1.184 -0.373,0.061 -0.745,0.128 -1.116,0.203 m -1.393,0.322 c -0.595,-0.442 -1.194,-0.879 -1.799,-1.309 0.381,-0.078 0.765,-0.148 1.15,-0.21 0.595,0.411 1.186,0.829 1.772,1.254 -0.376,0.081 -0.751,0.169 -1.123,0.265 m -1.382,0.396 c -0.61,-0.464 -1.223,-0.922 -1.842,-1.374 0.381,-0.099 0.764,-0.19 1.149,-0.273 0.611,0.433 1.217,0.873 1.818,1.319 -0.377,0.102 -0.752,0.211 -1.125,0.328 m -1.367,0.467 c -0.623,-0.484 -1.25,-0.963 -1.881,-1.437 0.379,-0.119 0.761,-0.231 1.145,-0.335 0.624,0.455 1.243,0.916 1.858,1.383 -0.376,0.123 -0.75,0.252 -1.122,0.389 m -1.35,0.536 c -0.634,-0.504 -1.273,-1.003 -1.915,-1.497 0.377,-0.139 0.755,-0.271 1.136,-0.396 0.636,0.476 1.268,0.958 1.895,1.445 -0.375,0.143 -0.747,0.292 -1.116,0.448 m -1.331,0.602 c -0.644,-0.523 -1.292,-1.041 -1.944,-1.555 0.372,-0.159 0.747,-0.31 1.124,-0.455 0.646,0.497 1.288,0.998 1.926,1.505 -0.372,0.162 -0.74,0.33 -1.106,0.505 m -1.308,0.664 c -0.653,-0.541 -1.31,-1.078 -1.97,-1.611 0.366,-0.177 0.736,-0.347 1.109,-0.511 0.655,0.517 1.305,1.038 1.953,1.563 -0.367,0.18 -0.731,0.366 -1.092,0.559 m -1.283,0.723 c -0.662,-0.559 -1.326,-1.114 -1.993,-1.665 0.359,-0.194 0.723,-0.382 1.09,-0.564 0.662,0.536 1.322,1.075 1.978,1.619 -0.362,0.197 -0.72,0.4 -1.075,0.61 m -1.256,0.775 c -0.668,-0.574 -1.34,-1.145 -2.013,-1.715 0.353,-0.21 0.709,-0.414 1.069,-0.612 0.669,0.553 1.335,1.11 1.999,1.671 -0.355,0.213 -0.706,0.432 -1.055,0.656 m -1.224,0.824 -2.032,-1.762 c 0.345,-0.224 0.693,-0.444 1.045,-0.657 0.675,0.571 1.348,1.145 2.018,1.721 -0.347,0.227 -0.69,0.46 -1.031,0.698 m -1.191,0.868 -2.048,-1.805 c 0.336,-0.238 0.674,-0.471 1.017,-0.699 l 2.036,1.768 c -0.338,0.241 -0.674,0.486 -1.005,0.736 m -1.155,0.906 -2.058,-1.841 c 0.325,-0.249 0.65,-0.499 0.982,-0.739 l 2.052,1.811 c -0.329,0.252 -0.654,0.508 -0.976,0.769 m -1.115,0.938 -2.073,-1.877 c 0.317,-0.262 0.639,-0.517 0.986,-0.737 l 2.029,1.818 c -0.317,0.261 -0.632,0.526 -0.942,0.796 m -1.074,0.963 -2.088,-1.91 c 0.303,-0.268 0.61,-0.531 0.92,-0.79 l 2.075,1.882 c -0.306,0.269 -0.609,0.541 -0.907,0.818 m -1.031,0.981 c -0.702,-0.644 -1.403,-1.289 -2.101,-1.937 0.29,-0.274 0.584,-0.543 0.881,-0.81 l 2.089,1.915 c -0.292,0.274 -0.583,0.551 -0.869,0.832 m 32.882,-8.084 -0.328,-0.196 0.201,0.084 0.36,0.189 -0.233,-0.077 z m -1.287,-0.382 c -0.249,-0.155 -0.5,-0.308 -0.751,-0.457 l 0.571,0.2 c 0.249,0.135 0.496,0.273 0.743,0.414 -0.187,-0.055 -0.375,-0.107 -0.563,-0.157 m -1.307,-0.308 c -0.329,-0.211 -0.661,-0.418 -0.996,-0.621 0.255,0.069 0.509,0.142 0.761,0.218 0.326,0.185 0.65,0.374 0.971,0.567 -0.244,-0.058 -0.49,-0.113 -0.736,-0.164 m -1.323,-0.231 c -0.387,-0.255 -0.776,-0.504 -1.168,-0.748 0.293,0.061 0.586,0.127 0.878,0.199 0.382,0.224 0.759,0.453 1.134,0.688 -0.28,-0.052 -0.562,-0.098 -0.844,-0.139 m -1.338,-0.155 c -0.43,-0.291 -0.864,-0.576 -1.301,-0.855 0.32,0.048 0.639,0.101 0.957,0.161 0.425,0.258 0.846,0.522 1.264,0.792 -0.306,-0.039 -0.613,-0.071 -0.92,-0.098 m -1.348,-0.077 c -0.467,-0.323 -0.937,-0.639 -1.412,-0.95 0.339,0.031 0.677,0.068 1.014,0.111 0.462,0.289 0.919,0.585 1.372,0.887 -0.325,-0.023 -0.649,-0.039 -0.974,-0.048 m -1.356,0.001 c -0.498,-0.352 -1,-0.698 -1.506,-1.037 0.352,0.011 0.704,0.029 1.055,0.055 0.493,0.317 0.982,0.642 1.467,0.973 -0.339,-0.004 -0.678,-0.001 -1.016,0.009 m -1.361,0.078 c -0.524,-0.379 -1.054,-0.751 -1.588,-1.117 0.361,-0.009 0.723,-0.011 1.085,-0.006 0.521,0.345 1.037,0.697 1.549,1.056 -0.349,0.015 -0.698,0.038 -1.046,0.067 m -1.362,0.157 c -0.549,-0.404 -1.104,-0.802 -1.662,-1.194 0.369,-0.031 0.737,-0.054 1.106,-0.069 0.546,0.371 1.087,0.749 1.624,1.134 -0.357,0.036 -0.713,0.079 -1.068,0.129 M -18,-33.849 c -0.571,-0.429 -1.146,-0.852 -1.727,-1.268 0.373,-0.052 0.747,-0.096 1.121,-0.132 0.569,0.396 1.132,0.798 1.691,1.208 -0.363,0.057 -0.725,0.121 -1.085,0.192 m -1.359,0.31 c -0.59,-0.452 -1.185,-0.898 -1.785,-1.338 0.375,-0.074 0.751,-0.139 1.13,-0.197 0.588,0.419 1.172,0.846 1.751,1.28 -0.367,0.077 -0.732,0.162 -1.096,0.255 m -1.354,0.385 c -0.608,-0.475 -1.22,-0.944 -1.837,-1.407 0.376,-0.095 0.754,-0.182 1.134,-0.261 0.607,0.443 1.208,0.893 1.805,1.349 -0.369,0.099 -0.736,0.205 -1.102,0.319 m -1.344,0.456 c -0.624,-0.496 -1.253,-0.987 -1.886,-1.471 0.377,-0.116 0.754,-0.224 1.135,-0.325 0.623,0.466 1.241,0.938 1.855,1.416 -0.371,0.119 -0.739,0.246 -1.104,0.38 m -1.334,0.527 c -0.638,-0.517 -1.281,-1.028 -1.928,-1.534 0.374,-0.137 0.751,-0.265 1.13,-0.387 0.639,0.488 1.272,0.981 1.901,1.48 -0.371,0.14 -0.738,0.287 -1.103,0.441 m -1.319,0.594 c -0.651,-0.537 -1.307,-1.068 -1.967,-1.595 0.371,-0.156 0.746,-0.305 1.123,-0.446 0.651,0.508 1.298,1.023 1.94,1.542 -0.368,0.159 -0.734,0.326 -1.096,0.499 m -1.302,0.657 c -0.664,-0.555 -1.331,-1.106 -2.001,-1.652 0.367,-0.175 0.737,-0.343 1.111,-0.504 0.663,0.529 1.322,1.063 1.977,1.602 -0.366,0.178 -0.728,0.363 -1.087,0.554 m -1.282,0.717 c -0.675,-0.573 -1.353,-1.142 -2.033,-1.707 0.362,-0.192 0.728,-0.378 1.096,-0.558 0.674,0.549 1.344,1.102 2.011,1.659 -0.362,0.196 -0.72,0.398 -1.074,0.606 m -1.26,0.772 c -0.684,-0.589 -1.371,-1.175 -2.061,-1.758 0.356,-0.209 0.716,-0.412 1.079,-0.609 0.683,0.567 1.364,1.139 2.04,1.713 -0.356,0.213 -0.708,0.431 -1.058,0.654 m -1.233,0.823 -2.087,-1.806 c 0.349,-0.225 0.702,-0.443 1.058,-0.656 0.692,0.585 1.381,1.173 2.068,1.764 -0.349,0.228 -0.696,0.46 -1.039,0.698 m -1.203,0.868 -2.112,-1.85 c 0.341,-0.238 0.686,-0.471 1.034,-0.699 l 2.094,1.812 c -0.342,0.241 -0.681,0.487 -1.016,0.737 m -1.171,0.907 -2.13,-1.886 c 0.331,-0.25 0.663,-0.5 1.002,-0.74 l 2.117,1.856 c -0.333,0.253 -0.663,0.509 -0.989,0.77 m -1.137,0.941 -2.151,-1.922 c 0.325,-0.262 0.655,-0.519 1.011,-0.738 l 2.1,1.861 c -0.323,0.263 -0.642,0.529 -0.96,0.799 m -1.097,0.968 -2.173,-1.954 c 0.312,-0.269 0.627,-0.534 0.945,-0.795 l 2.155,1.928 c -0.312,0.269 -0.621,0.543 -0.927,0.821 m -1.057,0.987 -2.194,-1.98 c 0.301,-0.276 0.604,-0.548 0.91,-0.816 l 2.176,1.959 c -0.301,0.276 -0.598,0.555 -0.892,0.837 m -1.014,1.001 c -0.739,-0.665 -1.477,-1.332 -2.212,-2.002 0.287,-0.28 0.577,-0.557 0.871,-0.83 l 2.195,1.985 -0.539,0.53 -0.315,0.317 z m 33.101,-8.967 -0.303,-0.193 0.185,0.083 0.331,0.186 -0.213,-0.076 z m -1.189,-0.377 c -0.23,-0.153 -0.463,-0.304 -0.697,-0.452 l 0.53,0.199 c 0.231,0.133 0.46,0.269 0.688,0.408 -0.173,-0.054 -0.346,-0.105 -0.521,-0.155 m -1.212,-0.305 c -0.308,-0.21 -0.619,-0.416 -0.932,-0.618 0.239,0.069 0.475,0.142 0.711,0.219 0.304,0.183 0.606,0.37 0.905,0.561 -0.228,-0.058 -0.456,-0.112 -0.684,-0.162 m -1.236,-0.233 c -0.363,-0.253 -0.729,-0.502 -1.099,-0.746 0.277,0.062 0.552,0.13 0.826,0.201 0.357,0.223 0.712,0.452 1.063,0.685 -0.262,-0.052 -0.525,-0.098 -0.79,-0.14 m -1.253,-0.158 c -0.407,-0.29 -0.818,-0.575 -1.232,-0.855 0.302,0.049 0.603,0.104 0.903,0.164 0.401,0.258 0.799,0.522 1.192,0.792 -0.287,-0.04 -0.575,-0.073 -0.863,-0.101 m -1.271,-0.082 c -0.443,-0.324 -0.892,-0.641 -1.345,-0.952 0.322,0.032 0.643,0.071 0.963,0.116 0.438,0.289 0.872,0.585 1.301,0.888 -0.306,-0.024 -0.612,-0.042 -0.919,-0.052 m -1.283,-0.006 c -0.477,-0.354 -0.958,-0.701 -1.444,-1.042 0.337,0.013 0.672,0.034 1.007,0.061 0.471,0.32 0.937,0.646 1.398,0.978 -0.32,-0.006 -0.641,-0.005 -0.961,0.003 m -1.295,0.071 c -0.505,-0.382 -1.015,-0.758 -1.53,-1.126 0.346,-0.007 0.693,-0.006 1.04,0.002 0.499,0.347 0.995,0.701 1.486,1.062 -0.332,0.014 -0.665,0.034 -0.996,0.062 m -1.302,0.148 c -0.532,-0.409 -1.068,-0.811 -1.61,-1.206 0.355,-0.028 0.71,-0.048 1.065,-0.06 0.527,0.374 1.049,0.756 1.566,1.143 -0.341,0.033 -0.681,0.074 -1.021,0.123 m -1.308,0.224 c -0.555,-0.434 -1.115,-0.861 -1.681,-1.282 0.36,-0.049 0.722,-0.09 1.083,-0.123 0.552,0.4 1.098,0.806 1.64,1.22 -0.349,0.054 -0.696,0.116 -1.042,0.185 m -1.31,0.3 c -0.577,-0.458 -1.16,-0.91 -1.747,-1.355 0.364,-0.07 0.73,-0.133 1.097,-0.187 0.574,0.425 1.143,0.856 1.706,1.295 -0.353,0.074 -0.705,0.157 -1.056,0.247 m -1.311,0.375 c -0.597,-0.481 -1.199,-0.957 -1.807,-1.426 0.367,-0.091 0.736,-0.175 1.106,-0.251 0.595,0.448 1.184,0.904 1.769,1.366 -0.358,0.097 -0.714,0.2 -1.068,0.311 m -1.307,0.448 c -0.617,-0.504 -1.237,-1.002 -1.863,-1.494 0.368,-0.112 0.739,-0.217 1.111,-0.315 0.614,0.472 1.222,0.951 1.826,1.436 -0.361,0.117 -0.718,0.241 -1.074,0.373 m -1.302,0.518 c -0.634,-0.525 -1.271,-1.045 -1.914,-1.558 0.369,-0.134 0.739,-0.26 1.112,-0.378 0.631,0.494 1.257,0.995 1.878,1.503 -0.361,0.137 -0.72,0.282 -1.076,0.433 m -1.294,0.586 c -0.649,-0.545 -1.302,-1.086 -1.96,-1.62 0.367,-0.154 0.737,-0.3 1.109,-0.439 0.647,0.516 1.289,1.039 1.927,1.567 -0.362,0.157 -0.72,0.322 -1.076,0.492 m -1.281,0.651 c -0.665,-0.565 -1.332,-1.125 -2.004,-1.68 0.365,-0.172 0.732,-0.338 1.102,-0.497 0.661,0.538 1.319,1.081 1.972,1.628 -0.359,0.177 -0.716,0.36 -1.07,0.549 m -1.268,0.711 c -0.677,-0.582 -1.358,-1.161 -2.043,-1.735 0.361,-0.191 0.725,-0.375 1.092,-0.553 0.675,0.558 1.346,1.12 2.014,1.687 -0.358,0.194 -0.712,0.395 -1.063,0.601 m -1.249,0.768 c -0.69,-0.599 -1.384,-1.195 -2.08,-1.787 0.356,-0.208 0.715,-0.41 1.078,-0.605 0.688,0.577 1.372,1.157 2.052,1.742 -0.353,0.211 -0.703,0.428 -1.05,0.65 m -1.228,0.82 -2.114,-1.836 c 0.35,-0.223 0.703,-0.441 1.061,-0.653 0.699,0.594 1.395,1.193 2.088,1.794 -0.349,0.227 -0.693,0.458 -1.035,0.695 m -1.204,0.867 -2.146,-1.881 c 0.344,-0.238 0.691,-0.47 1.042,-0.697 l 2.12,1.842 c -0.342,0.241 -0.68,0.486 -1.016,0.736 m -1.176,0.907 -2.171,-1.916 c 0.335,-0.25 0.67,-0.501 1.013,-0.741 l 2.152,1.887 c -0.335,0.252 -0.666,0.509 -0.994,0.77 m -1.145,0.942 -2.2,-1.952 c 0.33,-0.263 0.665,-0.52 1.026,-0.739 l 2.142,1.892 c -0.326,0.262 -0.649,0.529 -0.968,0.799 m -1.111,0.971 -2.228,-1.984 c 0.318,-0.27 0.638,-0.535 0.962,-0.797 l 2.205,1.957 c -0.316,0.271 -0.629,0.546 -0.939,0.824 m -1.073,0.991 -2.256,-2.009 c 0.307,-0.277 0.617,-0.55 0.93,-0.82 l 2.233,1.988 c -0.306,0.277 -0.608,0.557 -0.907,0.841 m -1.033,1.005 -2.282,-2.028 c 0.295,-0.282 0.593,-0.561 0.894,-0.836 l 2.259,2.013 -0.549,0.532 -0.322,0.319 z m -0.989,1.013 c -0.772,-0.676 -1.541,-1.357 -2.308,-2.042 l 0.304,-0.304 0.552,-0.542 c 0.759,0.679 1.521,1.356 2.284,2.032 -0.281,0.283 -0.558,0.568 -0.832,0.856 m 3.521,1.493 c 0.797,0.687 1.596,1.371 2.4,2.051 -0.258,0.282 -0.512,0.567 -0.765,0.854 -0.816,-0.677 -1.628,-1.36 -2.436,-2.048 0.264,-0.288 0.531,-0.574 0.801,-0.857 m 0.997,-1.018 c 0.784,0.684 1.572,1.367 2.361,2.045 -0.272,0.284 -0.541,0.571 -0.808,0.86 -0.802,-0.679 -1.601,-1.361 -2.395,-2.048 0.277,-0.288 0.558,-0.574 0.842,-0.857 m 1.038,-1.01 2.324,2.036 c -0.285,0.283 -0.566,0.57 -0.846,0.858 -0.789,-0.678 -1.574,-1.358 -2.357,-2.042 l 0.313,-0.307 0.566,-0.545 z m 1.077,-0.994 2.286,2.019 -0.554,0.533 -0.326,0.32 -2.319,-2.032 c 0.301,-0.283 0.605,-0.563 0.913,-0.84 m 1.109,-0.973 2.248,1.997 c -0.305,0.278 -0.608,0.558 -0.908,0.841 l -2.281,-2.016 c 0.31,-0.277 0.624,-0.551 0.941,-0.822 m 1.141,-0.944 2.206,1.968 c -0.314,0.271 -0.625,0.545 -0.933,0.822 l -2.241,-1.992 c 0.32,-0.27 0.642,-0.535 0.968,-0.798 m 1.165,-0.909 2.165,1.934 c -0.321,0.262 -0.639,0.528 -0.953,0.797 l -2.201,-1.963 c 0.327,-0.26 0.656,-0.516 0.989,-0.768 m 1.183,-0.874 c 0.71,0.632 1.419,1.265 2.127,1.9 -0.327,0.252 -0.651,0.507 -0.971,0.767 l -2.158,-1.93 c 0.332,-0.248 0.663,-0.497 1.002,-0.737 m 1.207,-0.822 c 0.696,0.617 1.39,1.235 2.082,1.856 -0.331,0.24 -0.659,0.483 -0.984,0.73 -0.705,-0.633 -1.412,-1.265 -2.12,-1.894 0.338,-0.236 0.678,-0.466 1.022,-0.692 m 1.223,-0.769 c 0.682,0.598 1.361,1.201 2.036,1.807 -0.335,0.225 -0.667,0.455 -0.995,0.689 -0.69,-0.619 -1.38,-1.236 -2.074,-1.851 0.341,-0.22 0.686,-0.436 1.033,-0.645 m 1.236,-0.713 c 0.667,0.581 1.328,1.166 1.987,1.755 -0.338,0.209 -0.671,0.423 -1.002,0.642 -0.672,-0.604 -1.347,-1.205 -2.026,-1.801 0.344,-0.204 0.691,-0.403 1.041,-0.596 m 1.246,-0.651 c 0.649,0.561 1.294,1.127 1.934,1.698 -0.338,0.192 -0.673,0.39 -1.005,0.592 -0.654,-0.587 -1.312,-1.17 -1.974,-1.748 0.345,-0.186 0.694,-0.367 1.045,-0.542 m 1.252,-0.586 c 0.631,0.541 1.258,1.087 1.879,1.638 -0.338,0.174 -0.673,0.353 -1.005,0.538 -0.635,-0.569 -1.275,-1.132 -1.92,-1.691 0.346,-0.168 0.694,-0.329 1.046,-0.485 m 1.256,-0.517 c 0.612,0.518 1.218,1.043 1.82,1.574 -0.336,0.154 -0.67,0.315 -1,0.481 -0.617,-0.549 -1.238,-1.092 -1.864,-1.63 0.345,-0.148 0.693,-0.29 1.044,-0.425 m 1.255,-0.447 c 0.592,0.496 1.178,0.998 1.759,1.507 -0.333,0.134 -0.665,0.275 -0.992,0.422 -0.597,-0.527 -1.198,-1.049 -1.805,-1.565 0.343,-0.128 0.69,-0.25 1.038,-0.364 m 1.253,-0.375 c 0.57,0.473 1.135,0.952 1.694,1.438 -0.329,0.114 -0.657,0.235 -0.981,0.362 -0.575,-0.505 -1.156,-1.005 -1.741,-1.498 0.34,-0.108 0.683,-0.208 1.028,-0.302 m 1.248,-0.3 c 0.548,0.449 1.09,0.904 1.626,1.365 -0.324,0.094 -0.647,0.194 -0.967,0.301 -0.552,-0.482 -1.111,-0.958 -1.675,-1.427 0.337,-0.087 0.676,-0.167 1.016,-0.239 m 1.24,-0.224 c 0.524,0.423 1.042,0.853 1.554,1.289 -0.318,0.073 -0.634,0.152 -0.949,0.239 -0.528,-0.458 -1.063,-0.909 -1.603,-1.353 0.331,-0.066 0.664,-0.125 0.998,-0.175 m 1.23,-0.149 c 0.498,0.397 0.99,0.801 1.478,1.212 -0.311,0.051 -0.619,0.11 -0.927,0.177 -0.504,-0.432 -1.014,-0.858 -1.528,-1.277 0.325,-0.045 0.65,-0.082 0.977,-0.112 m 1.216,-0.073 c 0.472,0.37 0.938,0.747 1.398,1.131 -0.301,0.031 -0.601,0.07 -0.9,0.116 -0.478,-0.405 -0.961,-0.804 -1.449,-1.196 0.317,-0.025 0.634,-0.041 0.951,-0.051 M -6.7,-31.6 c 0.442,0.342 0.88,0.691 1.312,1.046 -0.29,0.012 -0.58,0.032 -0.869,0.058 -0.449,-0.377 -0.903,-0.748 -1.363,-1.113 0.307,-0.004 0.613,-10e-4 0.92,0.009 m 1.182,0.078 c 0.412,0.313 0.82,0.632 1.223,0.958 -0.278,-0.006 -0.555,-0.006 -0.832,0.001 -0.42,-0.347 -0.843,-0.689 -1.272,-1.024 0.295,0.014 0.588,0.036 0.881,0.065 m 1.162,0.151 c 0.38,0.283 0.755,0.571 1.125,0.866 -0.262,-0.023 -0.525,-0.04 -0.788,-0.05 -0.385,-0.317 -0.776,-0.627 -1.171,-0.932 0.279,0.032 0.557,0.071 0.834,0.116 m 1.139,0.224 c 0.344,0.25 0.683,0.506 1.018,0.767 -0.243,-0.038 -0.488,-0.069 -0.733,-0.096 -0.349,-0.282 -0.703,-0.56 -1.061,-0.831 0.26,0.047 0.519,0.101 0.776,0.16 m 1.113,0.294 c 0.302,0.215 0.602,0.435 0.898,0.66 -0.221,-0.049 -0.442,-0.093 -0.663,-0.132 -0.308,-0.245 -0.621,-0.486 -0.935,-0.722 0.234,0.06 0.468,0.125 0.7,0.194 m 1.083,0.363 c 0.254,0.175 0.506,0.354 0.755,0.537 -0.189,-0.054 -0.378,-0.105 -0.568,-0.153 -0.258,-0.201 -0.519,-0.399 -0.783,-0.593 0.2,0.066 0.399,0.136 0.596,0.209 m 1.052,0.427 c 0.191,0.127 0.38,0.257 0.568,0.389 l -0.428,-0.145 c -0.191,-0.146 -0.384,-0.29 -0.579,-0.431 l 0.439,0.187 z m 1.017,0.491 0.27,0.175 -0.173,-0.071 -0.248,-0.182 0.151,0.078 z m -2.043,-1.095 -0.275,-0.187 0.167,0.08 0.301,0.181 -0.193,-0.074 z m -1.083,-0.366 c -0.212,-0.15 -0.425,-0.298 -0.64,-0.443 l 0.486,0.194 c 0.211,0.131 0.421,0.265 0.629,0.4 -0.158,-0.052 -0.316,-0.102 -0.475,-0.151 m -1.111,-0.298 c -0.284,-0.206 -0.571,-0.409 -0.859,-0.608 0.219,0.068 0.437,0.14 0.655,0.215 0.28,0.18 0.557,0.364 0.831,0.552 -0.208,-0.057 -0.417,-0.109 -0.627,-0.159 m -1.138,-0.228 c -0.337,-0.25 -0.677,-0.496 -1.02,-0.737 0.255,0.062 0.51,0.128 0.764,0.199 0.331,0.22 0.659,0.445 0.984,0.675 -0.242,-0.05 -0.485,-0.096 -0.728,-0.137 m -1.162,-0.156 c -0.379,-0.288 -0.763,-0.571 -1.151,-0.848 0.282,0.05 0.564,0.104 0.843,0.165 0.374,0.255 0.743,0.516 1.109,0.782 -0.266,-0.039 -0.533,-0.072 -0.801,-0.099 m -1.182,-0.084 c -0.417,-0.321 -0.838,-0.636 -1.264,-0.946 0.302,0.033 0.602,0.073 0.902,0.118 0.411,0.288 0.816,0.581 1.218,0.881 -0.285,-0.024 -0.57,-0.041 -0.856,-0.053 m -1.2,-0.008 c -0.45,-0.352 -0.905,-0.698 -1.364,-1.038 0.316,0.015 0.632,0.036 0.947,0.065 0.444,0.317 0.882,0.642 1.317,0.972 -0.3,-0.006 -0.601,-0.006 -0.9,0.001 m -1.217,0.067 c -0.48,-0.381 -0.964,-0.757 -1.454,-1.125 0.328,-0.004 0.656,-0.002 0.983,0.007 0.474,0.347 0.943,0.7 1.407,1.06 -0.313,0.012 -0.625,0.031 -0.936,0.058 m -1.23,0.142 c -0.507,-0.409 -1.02,-0.811 -1.537,-1.206 0.337,-0.026 0.674,-0.044 1.012,-0.054 0.502,0.374 0.999,0.755 1.49,1.142 -0.322,0.032 -0.644,0.071 -0.965,0.118 m -1.24,0.218 c -0.533,-0.435 -1.071,-0.863 -1.614,-1.285 0.344,-0.046 0.689,-0.085 1.035,-0.116 0.528,0.4 1.05,0.807 1.567,1.221 -0.331,0.053 -0.66,0.113 -0.988,0.18 m -1.249,0.293 c -0.556,-0.459 -1.118,-0.913 -1.685,-1.36 0.349,-0.068 0.701,-0.128 1.053,-0.18 0.552,0.426 1.099,0.859 1.639,1.298 -0.337,0.074 -0.673,0.154 -1.007,0.242 m -1.254,0.368 c -0.579,-0.484 -1.163,-0.962 -1.751,-1.433 0.353,-0.089 0.708,-0.17 1.066,-0.244 0.574,0.451 1.144,0.908 1.707,1.372 -0.342,0.094 -0.683,0.196 -1.022,0.305 m -1.256,0.439 c -0.6,-0.506 -1.205,-1.007 -1.814,-1.501 0.356,-0.111 0.715,-0.213 1.075,-0.308 0.596,0.474 1.186,0.956 1.771,1.443 -0.346,0.115 -0.691,0.238 -1.032,0.366 m -1.257,0.511 c -0.619,-0.528 -1.243,-1.051 -1.872,-1.568 0.358,-0.131 0.718,-0.254 1.081,-0.371 0.615,0.498 1.225,1.002 1.83,1.512 -0.349,0.136 -0.695,0.279 -1.039,0.427 m -1.254,0.579 c -0.637,-0.549 -1.279,-1.093 -1.926,-1.632 0.358,-0.15 0.719,-0.294 1.082,-0.431 0.634,0.519 1.263,1.045 1.887,1.577 -0.351,0.156 -0.698,0.318 -1.043,0.486 m -1.248,0.645 c -0.654,-0.569 -1.313,-1.134 -1.976,-1.693 0.357,-0.17 0.717,-0.333 1.079,-0.491 0.652,0.542 1.298,1.089 1.94,1.641 -0.351,0.175 -0.698,0.356 -1.043,0.543 m -1.238,0.705 c -0.671,-0.587 -1.345,-1.17 -2.024,-1.749 0.355,-0.188 0.713,-0.371 1.075,-0.547 0.667,0.562 1.329,1.129 1.987,1.7 -0.349,0.193 -0.695,0.392 -1.038,0.596 m -1.227,0.764 c -0.686,-0.605 -1.375,-1.205 -2.067,-1.802 0.352,-0.206 0.707,-0.406 1.065,-0.601 0.682,0.581 1.36,1.167 2.034,1.757 -0.347,0.21 -0.691,0.425 -1.032,0.646 m -1.21,0.816 c -0.701,-0.619 -1.405,-1.236 -2.109,-1.851 0.347,-0.222 0.698,-0.439 1.053,-0.65 0.695,0.599 1.387,1.202 2.077,1.809 -0.344,0.226 -0.684,0.457 -1.021,0.692 m -1.191,0.864 -2.149,-1.896 c 0.343,-0.236 0.688,-0.468 1.037,-0.695 0.708,0.618 1.413,1.237 2.118,1.857 -0.339,0.241 -0.674,0.485 -1.006,0.734 m -1.168,0.905 -2.181,-1.93 c 0.335,-0.25 0.671,-0.5 1.012,-0.74 l 2.156,1.901 c -0.332,0.253 -0.661,0.509 -0.987,0.769 m -1.142,0.942 -2.217,-1.966 c 0.332,-0.263 0.667,-0.52 1.03,-0.739 l 2.152,1.906 c -0.325,0.262 -0.646,0.529 -0.965,0.799 m -1.113,0.97 -2.252,-1.996 c 0.32,-0.27 0.644,-0.536 0.97,-0.798 l 2.222,1.971 c -0.316,0.271 -0.63,0.546 -0.94,0.823 m -1.079,0.993 -2.286,-2.021 c 0.311,-0.277 0.624,-0.551 0.941,-0.822 l 2.257,2.001 c -0.307,0.278 -0.611,0.558 -0.912,0.842 m -1.043,1.007 -2.318,-2.038 c 0.299,-0.283 0.602,-0.563 0.908,-0.839 l 2.289,2.024 -0.554,0.534 -0.325,0.319 z m -1.002,1.017 c -0.787,-0.68 -1.569,-1.364 -2.35,-2.051 l 0.31,-0.307 0.562,-0.543 2.32,2.042 c -0.283,0.284 -0.564,0.57 -0.842,0.859 m -0.956,1.02 c -0.798,-0.682 -1.592,-1.368 -2.383,-2.059 0.275,-0.288 0.551,-0.573 0.832,-0.855 0.781,0.688 1.566,1.373 2.353,2.055 -0.271,0.283 -0.538,0.57 -0.802,0.859"
         style="fill:#009e2b;fill-opacity:1;fill-rule:nonzero;stroke:none"
         id="path5593" />
    </g>
  </g>
</svg>
